<?xml version="1.0" encoding="utf-8"?>
<!-- Generator: Adobe Illustrator 15.0.0, SVG Export Plug-In . SVG Version: 6.00 Build 0)  -->
<!DOCTYPE svg PUBLIC "-//W3C//DTD SVG 1.1//EN" "http://www.w3.org/Graphics/SVG/1.1/DTD/svg11.dtd">
<svg version="1.1" id="Layer_1" xmlns="http://www.w3.org/2000/svg" xmlns:xlink="http://www.w3.org/1999/xlink" x="0px" y="0px"
	 width="24px" height="24px" viewBox="0 0 24 24" enable-background="new 0 0 24 24" xml:space="preserve">
<g>
	<g>
		<g>
			<path fill="none" stroke="#BDDFD3" stroke-width="0.8" stroke-miterlimit="10" d="M11.255,11.511v0.946
				c-1.673,0.389-2.926,1.883-2.926,3.675v1.743h7.562v-1.743c0-1.792-1.251-3.286-2.927-3.675V11.5"/>
		</g>
		<g>
			<path fill="none" stroke="#BDDFD3" stroke-width="0.8" stroke-miterlimit="10" d="M16.991,5.126c0,0.55-0.45,1-1,1H8.009
				c-0.55,0-1-0.45-1-1V5.11c0-0.55,0.45-1,1-1h7.982c0.55,0,1,0.45,1,1V5.126z"/>
		</g>
		<g>
			<path fill="none" stroke="#BDDFD3" stroke-width="0.8" stroke-miterlimit="10" d="M16.991,18.89c0,0.55-0.45,1-1,1H8.009
				c-0.55,0-1-0.45-1-1v-0.015c0-0.55,0.45-1,1-1h7.982c0.55,0,1,0.45,1,1V18.89z"/>
		</g>
		<g>
			<path fill="none" stroke="#BDDFD3" stroke-width="0.8" stroke-miterlimit="10" d="M8.329,6.126V7.83
				c0,2.087,1.693,3.779,3.781,3.779s3.78-1.692,3.78-3.779V6.126H8.329z"/>
		</g>
		<g>
			<polygon fill="none" stroke="#BDDFD3" stroke-width="0.8" stroke-miterlimit="10" points="12.116,16.132 9.528,17.875 
				14.705,17.875 			"/>
		</g>
		<g>
			<path fill="#BDDFD3" d="M8.354,8.06c0.12,1.978,1.748,3.55,3.757,3.55c2.01,0,3.635-1.572,3.757-3.55H8.354z"/>
		</g>
	</g>
</g>
</svg>
