<?xml version="1.0" encoding="utf-8"?>
<!-- Generator: Adobe Illustrator 15.0.0, SVG Export Plug-In . SVG Version: 6.00 Build 0)  -->
<!DOCTYPE svg PUBLIC "-//W3C//DTD SVG 1.1//EN" "http://www.w3.org/Graphics/SVG/1.1/DTD/svg11.dtd">
<svg version="1.1" id="Layer_1" xmlns="http://www.w3.org/2000/svg" xmlns:xlink="http://www.w3.org/1999/xlink" x="0px" y="0px"
	 width="24px" height="24px" viewBox="0 0 24 24" enable-background="new 0 0 24 24" xml:space="preserve">
<g>
	<g>
		<g>
			<circle fill="#716F6F" cx="12" cy="12.797" r="6.059"/>
		</g>
		<g>
			<path fill="#716F6F" d="M10.909,5.016c0.349-0.048,0.704-0.072,1.065-0.072c0.38,0,0.753,0.026,1.118,0.078"/>
			<path fill="#716F6F" d="M13.021,5.517c-0.667-0.096-1.374-0.098-2.045-0.006l-0.136-0.99c0.762-0.105,1.563-0.102,2.321,0.006
				L13.021,5.517z"/>
		</g>
		<g>
			<circle fill="#FFFFFF" cx="12" cy="12.797" r="4.558"/>
			<path fill="#716F6F" d="M12,17.854c-2.79,0-5.059-2.269-5.059-5.058c0-2.79,2.269-5.059,5.059-5.059
				c2.789,0,5.058,2.269,5.058,5.059C17.059,15.586,14.789,17.854,12,17.854z M12,8.738c-2.238,0-4.059,1.821-4.059,4.059
				c0,2.237,1.821,4.058,4.059,4.058s4.058-1.82,4.058-4.058C16.059,10.559,14.238,8.738,12,8.738z"/>
		</g>
		<polygon fill="#716F6F" points="10.633,14.773 10.06,14.215 11.601,12.634 11.601,10.032 12.4,10.032 12.4,12.959 		"/>
		<g>
			<line fill="#716F6F" x1="12" y1="6.311" x2="12" y2="5.045"/>
			<rect x="11.5" y="5.045" fill="#716F6F" width="1" height="1.266"/>
		</g>
		<g>
			<g>
				<path fill="#716F6F" d="M7.389,16.716c-0.404,1.01-0.942,2.735-0.718,2.893s1.503-1.277,1.839-1.928"/>
				<path fill="#716F6F" d="M16.612,16.716c0.403,1.01,0.941,2.735,0.718,2.893c-0.225,0.157-1.503-1.277-1.839-1.928"/>
			</g>
		</g>
		<g>
			<line fill="#716F6F" x1="7.108" y1="7.256" x2="8.275" y2="8.424"/>
			
				<rect x="6.866" y="7.34" transform="matrix(0.7068 0.7074 -0.7074 0.7068 7.801 -3.1424)" fill="#716F6F" width="1.651" height="1"/>
		</g>
		<g>
			<line fill="#716F6F" x1="4.555" y1="4.704" x2="5.151" y2="5.3"/>
			
				<rect x="4.432" y="4.502" transform="matrix(0.7071 0.7071 -0.7071 0.7071 4.9583 -1.9666)" fill="#716F6F" width="0.842" height="1"/>
		</g>
		<path fill="#716F6F" d="M8.834,5.034c0.762,0.762-3.248,4.649-3.949,3.948C3.908,8.005,4.051,6.38,5.142,5.29
			C6.233,4.201,7.857,4.056,8.834,5.034z"/>
		<g>
			<line fill="#716F6F" x1="17.095" y1="7.12" x2="15.827" y2="8.389"/>
			
				<rect x="15.961" y="6.858" transform="matrix(0.7071 0.7071 -0.7071 0.7071 10.3045 -9.3684)" fill="#716F6F" width="1" height="1.793"/>
		</g>
		<g>
			<line fill="#716F6F" x1="19.517" y1="4.698" x2="18.881" y2="5.334"/>
			
				<rect x="18.699" y="4.567" transform="matrix(0.7071 0.7071 -0.7071 0.7071 9.1701 -12.1064)" fill="#716F6F" width="1" height="0.899"/>
		</g>
		<path fill="#716F6F" d="M19.114,9.049c-0.762,0.763-4.648-3.246-3.947-3.947c0.977-0.979,2.602-0.834,3.691,0.256
			C19.948,6.448,20.093,8.072,19.114,9.049z"/>
	</g>
</g>
</svg>
