<?xml version="1.0" encoding="utf-8"?>
<!-- Generator: Adobe Illustrator 15.0.0, SVG Export Plug-In . SVG Version: 6.00 Build 0)  -->
<!DOCTYPE svg PUBLIC "-//W3C//DTD SVG 1.1//EN" "http://www.w3.org/Graphics/SVG/1.1/DTD/svg11.dtd">
<svg version="1.1"
	 id="svg2" sodipodi:docname="Neues Dokument 1" inkscape:version="0.47 r22583" xmlns:dc="http://purl.org/dc/elements/1.1/" xmlns:cc="http://creativecommons.org/ns#" xmlns:rdf="http://www.w3.org/1999/02/22-rdf-syntax-ns#" xmlns:svg="http://www.w3.org/2000/svg" xmlns:sodipodi="http://sodipodi.sourceforge.net/DTD/sodipodi-0.dtd" xmlns:inkscape="http://www.inkscape.org/namespaces/inkscape"
	 xmlns="http://www.w3.org/2000/svg" xmlns:xlink="http://www.w3.org/1999/xlink" x="0px" y="0px" width="1602.714px"
	 height="741.713px" viewBox="0 0 1602.714 741.713" enable-background="new 0 0 1602.714 741.713" xml:space="preserve">
<defs>
	
	
		<inkscape:perspective  sodipodi:type="inkscape:persp3d" inkscape:vp_x="0 : 526.18109 : 1" inkscape:vp_y="0 : 1000 : 0" inkscape:vp_z="744.09448 : 526.18109 : 1" inkscape:persp3d-origin="372.04724 : 350.78739 : 1" id="perspective10">
		</inkscape:perspective>
	
		<inkscape:perspective  sodipodi:type="inkscape:persp3d" inkscape:vp_x="0 : 0.5 : 1" inkscape:vp_y="0 : 1000 : 0" inkscape:vp_z="1 : 0.5 : 1" inkscape:persp3d-origin="0.5 : 0.33333333 : 1" id="perspective2824">
		</inkscape:perspective>
</defs>
<sodipodi:namedview  inkscape:pageopacity="0.0" id="base" inkscape:pageshadow="2" pagecolor="#ffffff" bordercolor="#666666" borderopacity="1.0" inkscape:cy="518.80927" inkscape:zoom="0.35" inkscape:cx="625.17606" inkscape:document-units="px" inkscape:current-layer="layer1" showgrid="false" inkscape:window-width="1366" inkscape:window-height="749" inkscape:window-x="-4" inkscape:window-y="-4" inkscape:window-maximized="1">
	</sodipodi:namedview>
<path d="M378.212,718.812c-6-2.245-7.678-4.444-6.252-8.192c0.66-1.736,1.928-3.157,2.818-3.157c0.89,0,4.785,2.047,8.655,4.549
	c3.871,2.501,8.604,5.117,10.518,5.812l3.48,1.264l-4.281,0.093c-2.355,0.053-5.81,0.315-7.677,0.586
	C383.606,720.038,380.338,719.606,378.212,718.812L378.212,718.812z"/>
<path d="M364.595,707.286c-1.129-0.632-3.013-0.845-4.185-0.474c-1.477,0.47-2.616-0.229-3.708-2.271
	c-0.868-1.621-2.422-3.238-3.455-3.593c-2.37-0.815-7.336-8.862-10.101-16.366c-1.396-3.789-3.274-6.409-5.503-7.677
	c-3.956-2.25-4.239-3.271-1.177-4.242c3.503-1.111,4.154-7.287,1.206-11.428c-1.407-1.977-2.148-4.297-1.724-5.401
	c0.5-1.304-0.881-3.592-4.224-6.998c-4.221-4.301-5.001-5.863-5.19-10.395c-0.122-2.935-0.836-6.073-1.587-6.979
	c-0.946-1.14-1.139-5.229-0.628-13.315c0.553-8.763,0.231-14.171-1.294-21.709c-2.264-11.193-3.421-32.053-2.833-51.08
	c0.125-4.062-0.4-9.636-1.169-12.388c-1.872-6.703-10.484-15.165-21.128-20.758c-7.613-4.001-8.684-5.026-11.66-11.171
	c-1.802-3.722-5.247-9.283-7.654-12.359c-2.408-3.075-5.025-7.594-5.817-10.039c-2.513-7.762-6.943-15.56-9.962-17.537
	c-1.607-1.054-3.439-3.791-4.073-6.085c-1.025-3.711-0.755-4.746,2.453-9.407c3.478-5.056,3.519-5.262,1.168-5.876
	c-5.775-1.511-3.346-9.229,7.02-22.31c6.889-8.692,8.907-15.315,6.999-22.967c-0.728-2.916-1.378-5.966-1.447-6.778
	c-0.069-0.812-0.586-1.476-1.151-1.476c-0.564,0-0.456-1.065,0.241-2.368c1.074-2.006,0.803-2.578-1.777-3.754
	c-3.761-1.714-9.438-0.02-9.46,2.822c-0.026,3.407-1.525,3.657-6.466,1.083c-2.646-1.379-5.395-2.508-6.108-2.508
	c-0.713,0-3.487-1.888-6.165-4.193c-2.677-2.306-5.532-4.719-6.344-5.361s-1.476-2.394-1.476-3.892c0-1.497-1.043-3.667-2.318-4.82
	c-1.274-1.153-2.926-3.941-3.67-6.197c-0.978-2.964-1.71-3.741-2.643-2.81c-1.946,1.945-4.827,1.576-11.819-1.517
	c-3.655-1.616-7.464-4.377-8.985-6.515c-1.452-2.039-4.227-4.527-6.165-5.529c-3.2-1.654-4-1.643-8.66,0.138l-5.135,1.961
	l-15.754-7.634c-9.69-4.696-17.211-9.177-19.541-11.64c-3.612-3.819-3.729-4.233-2.527-8.97c1.101-4.337,0.914-5.68-1.481-10.626
	c-1.507-3.114-4.801-7.897-7.319-10.629c-2.518-2.732-4.292-5.43-3.942-5.996c0.349-0.565-1.424-4.378-3.942-8.472
	c-2.86-4.65-4.878-9.632-5.38-13.277c-0.643-4.674-1.392-6.104-3.762-7.184c-2.514-1.145-3.216-0.999-4.655,0.967
	c-2.027,2.769-1.451,5.691,3.031,15.375c1.821,3.936,3.703,9.77,4.182,12.964s1.895,7.814,3.145,10.266
	c2.962,5.807,1.049,5.703-3.622-0.193c-2.755-3.479-3.499-5.386-2.952-7.567c0.585-2.329,0.009-3.451-2.854-5.568
	c-4.343-3.21-5.262-5.282-3.667-8.262c0.93-1.738,0.503-3.644-1.859-8.306c-2.399-4.734-2.901-7.027-2.307-10.543
	c0.971-5.747-1.607-10.948-6.414-12.939c-2.775-1.149-3.732-2.436-4.298-5.776c-0.4-2.364-1.166-6.021-1.703-8.127
	c-0.558-2.19-0.517-4.112,0.095-4.491c0.588-0.364,0.203-1.984-0.856-3.601c-1.56-2.381-1.667-3.508-0.562-5.932
	c0.75-1.646,1.033-3.528,0.629-4.182c-0.404-0.654,0.603-2.607,2.237-4.34c1.635-1.734,3.811-5.191,4.836-7.683
	c1.025-2.492,4.184-7.112,7.021-10.267c2.836-3.154,6.431-8.68,7.99-12.279c2.163-4.996,3.431-6.548,5.359-6.564
	c1.39-0.011,2.452,0.644,2.362,1.456c-0.376,3.384,2.299,2.341,5.305-2.067c1.771-2.598,2.727-4.901,2.124-5.118
	c-0.604-0.217-1.097-1.194-1.097-2.172s-2.445-4.155-5.433-7.059c-4.957-4.817-5.275-5.456-3.627-7.277
	c1.335-1.476,1.492-2.558,0.602-4.149c-1.565-2.796,0.904-9.059,3.582-9.083c1.106-0.011,1.421-0.387,0.742-0.886
	c-1.523-1.119-2.213-3.661-2-7.363c0.342-5.914-0.952-8.388-5.349-10.225c-2.372-0.991-5.99-3.082-8.042-4.646
	c-2.051-1.565-4.654-2.845-5.784-2.845c-1.129,0-6.265-1.075-11.411-2.389c-8.274-2.113-9.732-2.196-12.598-0.721
	c-5.939,3.057-12.232,4.303-14.797,2.93c-1.924-1.03-4.024-0.394-11.347,3.437c-4.942,2.585-10.846,5.101-13.119,5.591
	c-2.274,0.49-6.625,2.146-9.669,3.681c-8.635,4.352-21.005,8.738-24.427,8.662c-2.208-0.049-0.715-1.018,5.16-3.348
	c9.985-3.96,20.246-9.117,21.195-10.652c1.169-1.892-1.368-2.57-4.416-1.182c-2.244,1.022-3.627,0.927-6.217-0.43l-3.331-1.745
	l3.623-1.874c4.095-2.118,5.384-4.514,4.443-8.263c-0.912-3.631,4.113-6.299,14.938-7.932c5.816-0.877,10.237-2.337,13.214-4.363
	c5.249-3.574,4.347-6.274-1.312-3.93c-2.679,1.11-4.631,1.122-8.599,0.054c-4.822-1.298-4.994-1.484-2.837-3.061
	c3.609-2.639,11.073-4.226,15.977-3.397c3.104,0.524,5.645,0.157,8.254-1.192l3.77-1.949l-2.481-2.642
	c-1.365-1.453-2.481-2.954-2.481-3.335c0-1.096,7.11-3.288,10.666-3.288c1.774,0,6.639-1.285,10.81-2.854
	c4.171-1.57,13.794-3.713,21.385-4.763c12.312-1.703,14.918-1.723,24.15-0.193c5.692,0.944,13.538,2.07,17.436,2.502
	c3.897,0.432,10.796,1.803,15.33,3.047c10.531,2.889,17.389,2.854,29.154-0.15c5.194-1.326,10.445-2.094,11.667-1.706
	c1.222,0.388,3.301,0.128,4.619-0.577c1.815-0.972,3.224-0.854,5.814,0.486c2.341,1.21,5.23,1.556,9.164,1.096
	c4.15-0.485,7.784,0.017,13.09,1.811c4.04,1.366,8.526,2.483,9.97,2.483c2.558,0,2.566,0.043,0.332,1.687
	c-2.19,1.612-2.196,1.725-0.14,2.521c1.184,0.459,5.294,0.506,9.133,0.104c6.934-0.725,6.994-0.704,8.927,3.035l1.947,3.764
	l2.527-3.168c1.452-1.821,4.902-3.884,8.112-4.85c4.851-1.46,6.323-1.455,11.196,0.037c3.439,1.053,7.556,1.437,10.639,0.992
	c3.926-0.567,5.749-0.214,8.31,1.61c3.234,2.303,3.323,2.304,6.191,0.081c1.601-1.24,4.894-2.808,7.319-3.484
	c5.805-1.617,7.774-5.064,4.288-7.506c-2.465-1.727-2.357-1.858,4.123-5.037c4.833-2.371,7.01-2.909,7.952-1.967
	s0.933,1.978-0.035,3.786c-1.649,3.081,0.403,7.738,2.975,6.751c0.925-0.354,2.458-0.347,3.408,0.018
	c1.492,0.573,1.468,1.059-0.175,3.567c-4.541,6.931,5.64,4.967,12.532-2.417c2.802-3.002,7.144-3.912,11.213-2.351
	c2.628,1.008,2.382,1.834-1.97,6.606c-5.187,5.687-7.84,6.85-15.63,6.85c-3.765,0-8.209,0.816-10.28,1.887
	c-2.867,1.482-4.265,1.606-6.526,0.576c-4.215-1.92-5.683-0.322-2.659,2.897l2.582,2.747l-5.15,1.462
	c-2.833,0.804-7.542,1.539-10.464,1.634c-4.239,0.138-5.317,0.598-5.323,2.273c-0.006,1.434-2.068,2.943-6.496,4.753
	c-14.348,5.865-26.519,16.439-22.112,19.211c0.826,0.52,2.136,2.392,2.913,4.16c0.894,2.036,2.617,3.457,4.699,3.874
	c1.809,0.362,6.477,2.229,10.375,4.148s8.681,3.837,10.63,4.262c5.365,1.169,5.412,1.292,2.913,7.632
	c-2.138,5.424-2.181,6.197-0.524,9.401c0.993,1.92,2.456,3.472,3.251,3.449c3.87-0.112,7.499-3.683,9.753-9.6
	c2.149-5.639,3.128-6.691,9.297-9.985c9.103-4.862,12.889-9.651,11.88-15.028c-0.657-3.503-0.316-4.325,2.682-6.459
	c1.889-1.345,4.391-4.565,5.559-7.155c2.61-5.789,6.806-7.796,13.879-6.64c6.273,1.026,13.692,5.009,14.588,7.832
	c0.368,1.159,0.062,3.24-0.679,4.625c-1.123,2.098-0.911,2.983,1.27,5.305l2.618,2.786l4.274-2.216
	c2.352-1.218,6.12-3.596,8.374-5.283l4.099-3.067l0.963,2.604c0.53,1.432,0.68,3.341,0.334,4.242
	c-0.346,0.901-0.077,2.67,0.598,3.931c0.759,1.418,0.818,3.022,0.155,4.208c-0.748,1.336-0.248,3.366,1.653,6.713
	c2.723,4.794,2.724,4.798,0.332,6.473c-3.147,2.204-1.128,4.542,2.326,2.693c3.43-1.836,7.356-1.597,9.778,0.595
	c3.579,3.239,0.603,7.115-8.899,11.585c-10.334,4.862-14.941,5.826-28.43,5.945c-9.961,0.088-11.28,0.406-20.964,5.048
	c-5.684,2.725-10.334,5.421-10.334,5.993c0,2.438,1.791,2.225,8.662-1.025c4.049-1.916,9.267-3.445,11.753-3.446
	c4.245,0,4.4,0.131,3.074,2.608c-0.768,1.435-2.424,3.441-3.681,4.458c-1.975,1.599-2.091,2.274-0.854,4.988
	c1.854,4.07,6.697,6.029,12.49,5.051l4.578-0.772l-3.52,2.428c-1.936,1.336-5.125,2.775-7.086,3.199
	c-1.961,0.424-5.993,1.993-8.958,3.487c-3.01,1.517-6.034,2.319-6.847,1.817c-1.869-1.155,0.104-2.888,6.176-5.426
	c5.401-2.256,4.538-4.654-1.283-3.562c-2.268,0.425-9.619,3.195-16.337,6.154c-10.486,4.619-12.315,5.838-12.926,8.618
	c-0.75,3.417-3.311,5.033-12.312,7.771c-2.871,0.874-6.591,2.985-8.268,4.691c-1.676,1.707-4.884,4.262-7.13,5.678
	c-2.246,1.416-4.396,3.898-4.779,5.515c-0.63,2.664-0.776,2.728-1.565,0.675c-1.478-3.846-3.705-0.086-3.833,6.472
	c-0.131,6.719-3.537,11.302-11.006,14.811c-7.658,3.598-18.555,12.101-20.763,16.2c-1.949,3.62-2.031,5.03-0.83,14.333
	c1.12,8.679,1.053,10.857-0.421,13.708c-1.101,2.129-2.386,3.147-3.455,2.737c-2.534-0.973-5.634-11.401-4.765-16.032
	c0.603-3.216,0.204-4.435-2.193-6.687c-1.932-1.815-3.715-2.505-5.231-2.023c-1.265,0.401-4.842-0.36-7.953-1.694
	c-4.767-2.043-6.288-2.214-9.69-1.091c-2.307,0.762-4.6,2.567-5.35,4.215c-1.117,2.451-1.856,2.766-4.941,2.102
	c-1.995-0.429-5.062-1.513-6.816-2.41c-4.32-2.207-6.74-2.053-11.593,0.737c-2.263,1.301-6.882,3.792-10.264,5.535
	c-3.887,2.003-6.556,4.283-7.256,6.196c-0.609,1.665-2.787,8.156-4.839,14.424l-3.732,11.396l1.906,7.354
	c3.502,13.517,8.375,17.562,18.527,15.385c7.654-1.642,12.25-4.968,13.939-10.088c1.073-3.251,2.23-4.324,5.695-5.287
	c5.214-1.448,7.392-1.503,9.395-0.23c1.652,1.049,1.071,2.774-6.329,18.796c-5.077,10.993-4.711,11.978,3.987,10.722
	c7.925-1.144,15.169-0.266,16.016,1.939c0.33,0.859-0.207,6.661-1.193,12.892c-1.763,11.146-1.75,11.396,0.788,15.503
	c1.419,2.296,4.08,4.95,5.912,5.897c2.926,1.513,3.844,1.51,7.525-0.028c5.85-2.443,9.026-2.186,13.089,1.064
	c3.249,2.6,3.708,2.673,6.261,1c1.515-0.993,3.583-3.453,4.594-5.469c2.28-4.543,6.123-7.735,9.35-7.771
	c1.349-0.014,3.7-1.354,5.226-2.979c3.098-3.299,8.554-4.372,5.887-1.159c-2.238,2.695-3.517,11.368-2.075,14.062
	c1.201,2.244,1.297,2.231,3.483-0.468c1.556-1.922,1.869-3.153,1.019-4.004c-2.028-2.028-1.418-3.715,2.357-6.505
	c3.919-2.897,6.951-2.602,10.333,1.013c2.479,2.65,15.719,6.231,19.513,5.279c5.778-1.45,21.391,8.043,27.257,16.572
	c2.793,4.062,11.716,8.148,15.64,7.164c8.071-2.024,19.137,6.062,21.725,15.876c0.771,2.925,1.933,5.646,2.582,6.052
	c1.723,1.072-0.858,5.314-6.5,10.683c-3.605,3.43-4.466,4.906-3.452,5.921c1.014,1.015,2.681,0.125,6.684-3.564
	c5.822-5.366,7.765-5.911,10.682-2.994c1.774,1.773,1.72,2.136-0.712,4.724c-1.448,1.542-3.471,2.837-4.494,2.878
	c-1.079,0.044-0.643,0.562,1.037,1.232c2.308,0.921,3.511,0.662,5.906-1.272c6.235-5.039,7.702-5.279,13.241-2.186
	c3.601,2.012,5.043,3.543,4.861,5.163c-0.506,4.504,0.558,5.501,3.68,3.455c2.482-1.626,4.185-1.703,12.488-0.566
	c8.832,1.209,9.988,1.691,14.227,5.929c3.146,3.146,6.686,5.215,11.13,6.508c5.97,1.734,6.617,2.265,7.699,6.284
	c1.57,5.828-0.269,12.296-5.242,18.44c-2.125,2.624-4.729,6.478-5.787,8.562c-1.058,2.085-3.309,5.176-5.001,6.867
	c-2.863,2.864-3.022,3.581-2.31,10.383c1.396,13.288-5.104,38.078-11.374,43.38c-2.041,1.728-3.787,2.133-7.024,1.631
	c-2.659-0.412-4.629-0.146-5.148,0.694c-0.463,0.749-3.042,2.329-5.731,3.513c-2.688,1.183-6.691,3.689-8.896,5.572
	c-3.815,3.259-3.943,3.619-2.659,7.509c1.479,4.485,0.483,9.797-2.688,14.325c-1.025,1.464-1.864,3.955-1.864,5.536
	c0,1.58-1.232,4.519-2.738,6.528s-4.412,6.611-6.457,10.225c-5.031,8.892-8.056,10.432-15.35,7.816
	c-6.331-2.27-9.706-2.54-9.706-0.779c0,0.664,1.262,1.781,2.804,2.484s3.946,3.562,5.341,6.356c2.078,4.16,2.298,5.604,1.215,7.981
	c-1.678,3.682-8.092,6.772-14.055,6.772c-5.281,0-6.591,1.291-4.767,4.699c1.126,2.104,0.369,5.489-1.809,8.084
	c-0.176,0.21-2.026-0.499-4.109-1.577c-4.975-2.571-6.735-0.934-4.221,3.929c1.022,1.978,2.967,3.946,4.32,4.377
	c2.327,0.737,2.352,0.901,0.46,2.991c-1.102,1.219-1.674,3.065-1.272,4.111c0.431,1.125-0.531,3.553-2.357,5.946
	c-2.968,3.892-3.01,4.161-1.107,7.064c1.088,1.66,2.785,3.329,3.771,3.707c3.557,1.365,4.146,6.028,1.434,11.346
	c-2.717,5.325-3.134,10.666-1.031,13.199C373.921,704.417,367.488,708.905,364.595,707.286L364.595,707.286z"/>
<path d="M277.552,195.753c3.156-6.595,9.028-11.506,13.757-11.506c3.404,0,3.444,0.553,0.328,4.515l-2.451,3.115l2.514,2.036
	c2.026,1.641,3.071,1.782,5.381,0.73c1.576-0.718,3.192-2.333,3.591-3.589c0.542-1.708,1.424-2.107,3.503-1.585
	c1.925,0.483,3.13,0.07,3.922-1.346c2.4-4.288-3.708-9.772-8.203-7.367c-3.217,1.722-7.419-1.704-6.522-5.315
	c0.333-1.339-0.352-3.669-1.536-5.232c-2.441-3.222-6.155-3.561-14.284-1.305c-2.923,0.812-6.256,1.439-7.407,1.395
	s-1.784,0.418-1.407,1.028c0.377,0.61,0.256,1.122-0.27,1.136c-0.525,0.014-2.278,1.042-3.895,2.284l-2.939,2.258l3.301,1.255
	c2.58,0.981,4.101,0.841,6.967-0.641c3.368-1.742,3.992-1.741,7.668,0.012c2.214,1.056,5.237,1.598,6.768,1.214
	c1.521-0.382,3.092-0.167,3.491,0.478c0.407,0.659-1.256,1.506-3.799,1.936c-6.912,1.168-10.503,4.046-15.517,12.437
	c-4.188,7.008-4.428,7.854-2.758,9.707c1.638,1.817,2.09,1.846,4.336,0.275C273.47,202.712,275.928,199.146,277.552,195.753
	L277.552,195.753z"/>
<path d="M299.01,203.043c4.205-2.145,4.609-2.684,3.127-4.166c-1.482-1.481-2.418-1.385-7.238,0.748
	c-5.66,2.503-7.456,5.881-3.127,5.881C293.097,205.506,296.354,204.398,299.01,203.043z"/>
<path d="M319.952,194.119c2.46-1.723,2.551-2.062,0.816-3.032c-2.554-1.429-10.146,1.034-10.146,3.292
	C310.622,196.705,316.493,196.541,319.952,194.119z"/>
<path d="M408.651,704.155c0-0.521,0.638-1.583,1.417-2.362c0.78-0.779,0.971-1.418,0.426-1.418s-1.629,0.872-2.408,1.938
	c-1.118,1.529-1.891,1.661-3.673,0.627c-1.274-0.739-1.584-1.325-0.711-1.347c0.85-0.021,1.217-0.566,0.816-1.217
	c-0.771-1.248,1.256-1.588,7.086-1.189c5.204,0.355,5.727,1.115,2.511,3.646C411.118,705.188,408.651,705.786,408.651,704.155
	L408.651,704.155z"/>
<path d="M1395.001,674.514c-3.379-2.142,3.658-6.867,21.104-14.178c4.871-2.041,12.295-6.31,16.498-9.486
	c7.145-5.399,7.736-5.635,9.152-3.612c2.148,3.067,0.883,5.29-4.367,7.656c-2.508,1.132-5.662,3.323-7.01,4.872
	c-1.346,1.55-3.512,2.815-4.814,2.815c-1.301,0-4.361,1.79-6.799,3.978C1410.421,674.048,1399.851,677.586,1395.001,674.514
	L1395.001,674.514z"/>
<path d="M1312.343,659.17c-1.227-0.777-1.295-1.578-0.295-3.447c0.717-1.339,1.303-4.1,1.303-6.135c0-3.327,0.27-3.605,2.658-2.766
	c1.461,0.514,4.518,1.004,6.791,1.089s4.545,0.23,5.047,0.326c1.957,0.366-3.275,6.321-7.977,9.077
	C1314.273,660.596,1314.503,660.539,1312.343,659.17L1312.343,659.17z"/>
<path d="M1448.822,648.842c-0.412-0.411,0.561-1.776,2.162-3.036c2.41-1.896,2.691-2.695,1.637-4.665
	c-1.523-2.85,0.74-5.905,5.986-8.078c4.062-1.684,5.086-5.1,3.996-13.343c-0.75-5.671-0.658-6.023,1.17-4.513
	c1.436,1.188,1.787,2.682,1.275,5.408c-0.561,2.988-0.057,4.541,2.436,7.503c2.693,3.2,3.494,3.548,5.588,2.427
	c2.088-1.117,2.332-1.016,1.676,0.697c-0.424,1.103-0.77,2.214-0.77,2.469s-1.729,1.35-3.84,2.43
	c-2.111,1.081-6.229,3.939-9.152,6.354c-4.754,3.924-9.645,7.096-10.945,7.096C1449.781,649.59,1449.232,649.253,1448.822,648.842
	L1448.822,648.842z"/>
<path d="M1323.927,633.588c-2.486-2.646-2.945-2.749-5.336-1.184c-3.045,1.995-8.766,0.829-13.352-2.722
	c-2.447-1.894-2.617-2.504-1.355-4.86c1.076-2.013,1.113-3.422,0.141-5.556c-0.717-1.572-1.303-3.896-1.303-5.166
	c0-2.86-1.857-2.998-3.396-0.249c-0.633,1.131-1.488,1.72-1.902,1.306c-0.414-0.413,0.953-2.695,3.039-5.07
	c5.133-5.845,3.129-7.432-3.65-2.892c-2.92,1.955-5.5,4.094-5.729,4.749c-0.23,0.655-1.635-1.368-3.119-4.498
	c-1.609-3.395-4.391-6.805-6.889-8.449c-3.752-2.474-5.025-2.677-12.234-1.959c-10.572,1.053-20.771,3.659-27.449,7.016
	c-3.035,1.525-8.957,3.087-13.523,3.566c-4.469,0.469-11.576,2.15-15.793,3.739c-6.449,2.428-8.285,2.683-11.555,1.604
	c-4.383-1.446-6.203-4.429-3.367-5.517c1.025-0.396,2.891-3.104,4.141-6.022c2.002-4.672,2.113-6.127,0.926-12.163
	c-0.98-4.994-1.01-9.723-0.1-17.411c0.686-5.806,0.949-11.697,0.582-13.096c-0.365-1.396,0.207-4.816,1.27-7.6
	c1.873-4.907,2.328-5.229,14.998-10.596c7.189-3.044,14.543-5.533,16.35-5.533c4.881,0,10.926-4.646,14.258-10.956
	c2.061-3.901,3.488-5.386,4.725-4.907c3.449,1.333,4.131,1.071,3.865-1.486c-0.172-1.645,0.535-2.842,1.941-3.288
	c1.217-0.386,3.463-2.536,4.994-4.777c1.564-2.297,4.785-4.884,7.369-5.922c4.312-1.729,4.742-1.704,7.09,0.428
	c4.324,3.934,7.393,5.082,8.855,3.315c0.713-0.856,0.957-1.896,0.545-2.311c-1.354-1.353,4.834-9.113,7.857-9.859
	c1.623-0.399,4.957-1.731,7.408-2.961c3.822-1.914,5.168-2.041,9.449-0.892c9.232,2.479,9.539,2.885,6.105,8.074
	c-4.418,6.675-3.246,9.283,7.588,16.909c5.002,3.521,9.725,6.191,10.492,5.936c0.77-0.256,3.203-2.952,5.406-5.99
	c3.004-4.141,4.168-7.151,4.648-12.021c0.686-6.916,3.992-16.534,5.688-16.534c0.561,0,1.848,2.844,2.855,6.319
	c1.014,3.478,3.129,7.534,4.707,9.018c3.689,3.464,5.83,13.149,4.174,18.873c-1.098,3.793-0.885,4.4,2.875,8.268
	c2.232,2.296,5.764,7.896,7.848,12.441c2.082,4.548,5.838,10.98,8.344,14.298l4.559,6.029l-1.295,9.315
	c-0.941,6.759-2.396,11.265-5.303,16.41c-4.451,7.885-11.105,15.407-14.615,16.521c-1.262,0.4-4.184,3.359-6.494,6.575
	c-2.311,3.218-4.721,5.85-5.357,5.85c-0.635,0-3.338,2.76-6.004,6.133c-4.447,5.627-5.266,6.142-9.9,6.229
	c-3.555,0.067-6.279,1.031-9.199,3.26l-4.145,3.163L1323.927,633.588L1323.927,633.588z"/>
<path d="M748.015,608.756c-2.501-2.501-2.919-3.781-2.359-7.226c0.525-3.241,0.024-5.148-2.223-8.455
	c-1.595-2.349-2.899-4.848-2.899-5.554c0-0.705-2.089-4.084-4.643-7.505c-3.944-5.288-4.756-7.399-5.405-14.091
	c-1.148-11.805-4.917-24.582-9.984-33.844c-2.49-4.553-4.883-10.464-5.316-13.137c-0.923-5.687,1.388-14.148,6.658-24.402
	l3.506-6.82l-1.97-5.933c-1.103-3.318-1.642-7.246-1.223-8.913c0.49-1.952-0.036-4.277-1.524-6.734
	c-1.251-2.063-3.106-6.677-4.126-10.25c-1.361-4.771-3.258-7.875-7.148-11.691c-7.485-7.346-8.459-10.235-6.137-18.228
	c4.729-16.269-0.38-25.757-12.86-23.885c-4.859,0.729-5.045,0.638-5.731-2.795c-0.527-2.635-1.955-4.184-5.54-6.013
	c-4.658-2.377-6.65-2.387-12.372-0.057c-1.299,0.529-6.613,2.362-11.811,4.075c-7.814,2.574-10.16,2.906-13.562,1.92
	c-3.223-0.935-5.937-0.691-12.529,1.116c-6.813,1.869-9.283,2.07-12.966,1.054c-7.682-2.121-20.88-14.018-22.758-20.513
	c-1.452-5.025-10.487-16.739-13.562-17.583c-1.954-0.536-2.194-0.952-0.998-1.724c1.204-0.777,0.994-1.17-0.887-1.661
	c-2.983-0.781-3.28-3.222-0.395-3.245c1.767-0.017,1.809-0.186,0.295-1.163c-1.116-0.722-1.24-1.151-0.335-1.163
	c0.938-0.012,0.581-1.469-1.028-4.196c-2.266-3.84-2.312-4.347-0.582-6.26c5.284-5.839,6.441-18.41,2.426-26.33
	c-1.918-3.781-0.686-9.005,3.406-14.435c1.541-2.045,4.549-7.02,6.686-11.055c3.735-7.06,12.063-16.874,14.317-16.874
	c2.495,0,10.543-8.652,10.543-11.334c0-6.054,3.619-12.09,9.521-15.877c3.172-2.035,6.888-5.514,8.258-7.732
	c2.804-4.536,3.2-4.684,6.466-2.409c1.281,0.893,4.465,1.982,7.075,2.42c3.98,0.667,5.884,0.187,11.812-2.982
	c10.197-5.454,16.5-6.816,28.169-6.088c7.695,0.48,11.159,0.173,14.891-1.319c5.494-2.198,10.243-0.897,8.958,2.453
	c-0.387,1.007-0.15,2.496,0.524,3.309c0.849,1.023,0.842,2.489-0.021,4.762c-1.086,2.854-0.845,3.705,1.844,6.512
	c1.701,1.775,4.747,3.559,6.771,3.963c9.491,1.898,12.189,3.127,14.149,6.446c1.437,2.431,3.318,3.679,6.432,4.263
	c2.42,0.454,5.935,1.619,7.81,2.588c3.186,1.646,3.599,1.586,6.253-0.908c1.785-1.677,2.596-3.453,2.177-4.772
	c-0.366-1.156-0.088-3.185,0.62-4.508c1.827-3.415,7.017-3.08,15.116,0.976c8.826,4.418,25.562,7.571,31.496,5.933
	c2.853-0.788,5.597-0.798,8.095-0.03c8.162,2.508,12.342,0.545,13.455-6.32c0.369-2.28,1.002-4.146,1.404-4.146
	c0.764,0,1.162-3.428,1.273-10.925c0.033-2.436,0.609-4.429,1.277-4.429c0.795,0,0.756-0.855-0.111-2.48
	c-1.453-2.714-4.398-2.652-11.447,0.241c-3.344,1.372-4.275,1.313-7.271-0.456c-3.883-2.294-7.869-2.638-9.017-0.779
	c-0.854,1.383-6.895,0.414-10.169-1.632c-2.354-1.47-4.552-5.844-4.552-9.055c0-1.232-1.196-3.082-2.657-4.112
	c-2.263-1.593-2.395-2.044-0.886-3.031c0.975-0.638,2.979-0.875,4.453-0.528c1.882,0.442,3.611-0.298,5.797-2.483
	c2.056-2.056,4.556-3.19,7.355-3.339c2.334-0.124,5.714-1.194,7.511-2.379c3.904-2.572,12.764-1.857,19.639,1.584
	c9.271,4.64,17.504,4.367,20.818-0.69c1.723-2.631,1.732-3.184,0.098-5.681c-0.998-1.521-5.785-5.026-10.643-7.789l-8.828-5.023
	l1.654-3.198c0.91-1.759,1.357-3.497,0.992-3.86c-0.363-0.364-0.227-1.361,0.311-2.217c0.533-0.855,1.074-2.241,1.201-3.08
	c0.271-1.789-1.633-1.295-11.025,2.858c-5.453,2.412-6.264,3.15-5.055,4.608c0.793,0.955,2.572,1.759,3.953,1.788
	c1.939,0.041,1.48,0.598-2.008,2.438c-4.234,2.234-4.707,2.263-7.461,0.459c-2.355-1.542-2.662-2.26-1.545-3.604
	c1.105-1.334,0.939-1.848-0.811-2.505c-1.209-0.455-2.77-1.586-3.465-2.515c-3.383-4.509-14.117,7.353-17.238,19.05
	c-1.466,5.491-1.417,5.776,1.343,7.857l2.861,2.159l-5.251,1.083c-2.889,0.596-6.78,0.666-8.649,0.155
	c-3.45-0.942-7.821,0.478-7.821,2.541c0,0.606-0.805,0.794-1.787,0.417c-0.981-0.377-2.543-0.058-3.467,0.709
	c-1.434,1.189-1.271,2.164,1.104,6.631c2.572,4.839,2.652,5.501,1.048,8.718c-2.012,4.031-3.882,3.731-6.722-1.078
	c-1.979-3.352-1.968-3.429,0.652-3.801c3.307-0.469,3.52-2.574,0.312-3.087c-7.316-1.17-11.221-5.026-11.221-11.086
	c0-4.729-4.383-9.942-9.699-11.535c-2.763-0.828-5.766-2.565-6.674-3.862c-0.908-1.297-3.565-3.157-5.906-4.135
	s-4.96-2.784-5.82-4.013c-1.235-1.764-2.048-1.977-3.857-1.008c-1.261,0.675-2.292,1.987-2.292,2.916
	c0,3.066,15.054,16.939,22.412,20.654c7.802,3.938,9.021,5.345,3.6,4.154c-4.833-1.062-6.148,0.001-4.496,3.629
	c1.161,2.549,0.972,3.324-1.363,5.568l-2.714,2.607l0.616-3.519c0.98-5.585-6.383-13.607-12.488-13.607
	c-2.238,0-10.839-8.342-13.092-12.699c-2.407-4.655-5.087-5.554-8.881-2.981c-5.717,3.876-10.003,5.187-14.485,4.429
	c-5.957-1.006-9.704,1.071-8.755,4.853c0.494,1.974,0.22,2.855-0.895,2.855c-0.886,0-3.155,1.328-5.042,2.951
	c-1.888,1.623-3.839,2.952-4.335,2.953c-1.461,0.002-5.584,7.464-5.589,10.115c-0.005,2.536-4.623,7.531-9.08,9.821
	c-1.419,0.729-4.722,1.325-7.34,1.325c-3.604,0-5.078,0.594-6.066,2.44c-1.294,2.418-1.333,2.413-4.359-0.614
	c-2.841-2.84-4.476-3.551-10.205-4.437c-3.012-0.466-3.521-7.282-1.269-16.992c0.963-4.151,1.437-8.803,1.051-10.337
	c-1.118-4.459,2.385-7.089,8.244-6.188c13.533,2.079,21.449,2.194,23.306,0.338c2.55-2.55,3.7-10.958,2.144-15.673
	c-1.015-3.075-2.41-4.332-6.575-5.922c-6.124-2.339-6.254-4.602-0.266-4.662c2.281-0.023,5.572-0.975,7.313-2.116
	c1.74-1.141,3.666-1.765,4.278-1.387c1.67,1.032,7.992-2.612,10.092-5.816c1.016-1.549,3.014-3.114,4.439-3.478
	c1.428-0.364,5.253-3.137,8.501-6.162c4.604-4.29,7.021-5.634,10.969-6.105c4.893-0.584,9.812-4.606,7.502-6.134
	c-1.436-0.95-2.635-6.668-1.836-8.752c0.379-0.987,2.051-2.687,3.716-3.778l3.027-1.983l-0.777,4.86
	c-0.675,4.218-0.502,4.814,1.304,4.512c1.145-0.191,3.283-1.009,4.755-1.817c2.239-1.23,2.79-1.171,3.381,0.368
	c1.012,2.638-1.803,5.739-3.745,4.127c-1.073-0.891-1.754-0.858-2.354,0.111c-0.617,1-1.103,0.946-1.812-0.204
	c-0.533-0.862-1.24-1.297-1.572-0.966c-0.331,0.332,0.613,2.127,2.1,3.99c2.504,3.14,2.98,3.289,6.55,2.045
	c3.056-1.065,4.522-0.993,7.125,0.353c2.938,1.519,3.93,1.447,9.576-0.699c4.945-1.879,6.896-2.121,9.085-1.123
	c2.015,0.917,3.507,0.899,5.378-0.068c5.312-2.745,6.784-4.815,6.124-8.614c-0.979-5.631,0.812-7.476,5.528-5.696
	c3.208,1.211,4.146,1.163,5.598-0.287c1.535-1.536,1.402-2.103-1.113-4.781c-2.421-2.577-2.591-3.218-1.115-4.214
	c0.958-0.646,4.546-0.877,7.975-0.514c6.271,0.665,14.09-1.786,12.728-3.99c-1.191-1.93-8.393-2.488-14.492-1.123
	c-5.409,1.211-6.83,1.113-10.977-0.757c-6.439-2.904-7.198-6.301-2.781-12.458c5.687-7.924,6.726-10.449,5.105-12.4
	c-2.398-2.89-4.754-1.948-10.232,4.091c-2.895,3.191-6.84,6.455-8.766,7.253c-1.927,0.798-4.311,3.011-5.296,4.918
	c-1.605,3.105-1.604,3.756,0.023,6.24c0.999,1.525,2.896,3.115,4.211,3.533c3.623,1.15,2.906,3.308-2.275,6.854
	c-1.595,1.091-3.721,4.176-4.726,6.856c-1.259,3.358-3.172,5.65-6.157,7.374c-4.207,2.43-4.397,2.439-6.724,0.334
	c-1.315-1.191-2.713-3.621-3.104-5.399c-0.392-1.778-2.164-4.975-3.941-7.104l-3.231-3.871l-4.098,2.498
	c-2.254,1.374-5.161,2.488-6.46,2.476c-3.748-0.035-8.087-4.083-8.377-7.816c-0.145-1.855-0.627-4.283-1.071-5.395
	c-1.059-2.646,4.23-7.607,9.728-9.125c5.516-1.523,16.704-9.364,18.609-13.043c0.85-1.636,3.723-4.93,6.387-7.318
	c2.663-2.388,4.843-4.869,4.843-5.512c0-0.644,2.523-2.07,5.61-3.169c3.086-1.1,8.268-3.095,11.516-4.434
	c3.987-1.645,8.974-2.513,15.354-2.676c11.148-0.285,18.438,1.192,24.454,4.956c3.02,1.889,5.4,2.533,7.681,2.077
	c4.077-0.815,25.815,5.922,26.721,8.282c0.91,2.372-5.324,4.612-10.689,3.839c-2.457-0.354-7.539-1.3-11.292-2.103
	c-5.053-1.081-7.169-1.114-8.151-0.131s-0.491,1.709,1.894,2.795c1.771,0.807,3.989,2.954,4.929,4.77
	c2.392,4.624,10.05,8.393,14,6.891c3.797-1.443,3.771-1.898-0.234-4.071c-3.705-2.01-1.994-2.444,2.658-0.676
	c3.715,1.413,7.924-0.345,6.943-2.898c-0.459-1.196,0.832-2.06,4.473-2.993c7.793-1.997,8.363-2.282,7.717-3.862
	c-2.445-5.977-2.48-5.805,1.078-5.399c1.896,0.217,3.283,1.029,3.127,1.831c-0.156,0.792,0.832,2.039,2.197,2.769
	c2.051,1.097,3.668,0.707,9.305-2.249c8.266-4.333,14.701-5.746,17.102-3.754c1.338,1.11,3.559,1.118,9.98,0.035
	c4.543-0.766,8.773-1.074,9.406-0.685c0.629,0.39,1.492,0.146,1.92-0.543c0.93-1.506-1.646-4.923-3.055-4.052
	c-1.699,1.051-7.287-0.832-6.07-2.047c1.225-1.224,34.092,6.437,36.061,8.402c1.324,1.326,5.523-0.443,5.523-2.328
	c0-0.635-2.346-2.293-5.209-3.686c-8.885-4.316-9.453-11.228-1.102-13.325c4.85-1.217,6.945,0.187,13.65,9.14
	c8.707,11.624,8.484,11.032,5.641,15.027c-2.104,2.958-2.23,3.65-0.77,4.211c2.77,1.062,8.693-2.656,9.527-5.979
	c0.979-3.894-0.848-7.212-5.205-9.465c-3.426-1.771-5.904-5.018-5.904-7.731c0-0.925,1.285-1.155,3.84-0.689
	c3.828,0.699,6.994-0.689,15.666-6.869c1.98-1.413,5.334-2.344,8.715-2.421c6.855-0.156,9.074-1.307,7.102-3.684
	c-0.773-0.932-1.162-1.941-0.861-2.242c1.51-1.508,20.953-4.226,25.432-3.555c4.311,0.646,5.645,0.297,9.189-2.407
	c2.279-1.74,4.145-3.632,4.145-4.204c0-1.444-10.32-1.315-11.219,0.14c-1.238,2.002-2.842,1.305-2.391-1.038
	c0.381-1.979-0.619-2.3-9.221-2.97c-23.492-1.829-25.4-2.258-22.582-5.076c2.477-2.478,8.555-2.43,13.641,0.107
	c2.084,1.04,5.537,1.891,7.672,1.891s4.211,0.531,4.613,1.181c0.4,0.649,2.469,1.181,4.596,1.181c5.891,0,17.279,2.544,16.566,3.701
	c-0.35,0.562,0.752,1.023,2.447,1.023s4.781,0.916,6.861,2.034c2.795,1.505,6.701,2.046,15,2.079
	c8.92,0.036,11.885,0.494,14.469,2.235c1.785,1.205,3.24,2.528,3.23,2.941c-0.012,0.413-2.736,2.25-6.059,4.083
	c-8.021,4.426-6.328,6.355,3.377,3.841c6.285-1.629,7.73-1.64,12.936-0.094c4.27,1.268,6.936,1.431,9.832,0.6
	c2.891-0.829,5.855-0.651,10.893,0.654c5.252,1.361,7.975,1.5,11.305,0.575c7.598-2.11,16.945-1.514,22.369,1.426
	c2.695,1.461,7.666,4.166,11.045,6.01c5.992,3.268,6.254,3.304,10.408,1.441c3.479-1.56,5.42-1.69,10.551-0.709
	c5.098,0.975,6.955,0.856,9.826-0.629c2.811-1.453,3.262-2.167,2.189-3.459c-2.074-2.499,5.285-3.428,14.322-1.809
	c4.143,0.742,9.391,1.482,11.662,1.645c2.273,0.163,6.719,1.459,9.871,2.879c4.812,2.166,8.443,2.657,22.525,3.043
	c13.359,0.367,17.613,0.901,20.836,2.619c3.271,1.744,7,2.188,19.404,2.308c11.41,0.111,16.523,0.652,19.908,2.107
	c5.465,2.348,7.65,1.487,4.676-1.842c-2.139-2.395-2.127-2.398,6.123-1.579c13.826,1.374,30.408,4.399,36.023,6.572
	c2.924,1.131,8.494,2.446,12.381,2.921c3.887,0.475,9.557,2.126,12.602,3.669c4.621,2.341,6.123,2.6,9.09,1.566
	c4.057-1.415,6.689-0.396,12.887,4.986l3.854,3.345l-2.902,0.728c-2.912,0.731-10.645-1.183-13.311-3.295
	c-0.783-0.621-1.883-0.846-2.441-0.5c-0.559,0.346-3.322-0.166-6.139-1.136c-6.6-2.273-9.527-1.419-6.521,1.901
	c2.051,2.268,2.008,2.315-1.906,2.042c-7.324-0.511-5.311,1.652,5.441,5.846c5.846,2.28,10.879,4.389,11.186,4.685
	c1.107,1.073-2.547,2.403-5.205,1.895c-2.92-0.558-10.115,2.576-10.115,4.405c0,0.607-1.137,2.164-2.525,3.458
	c-2.322,2.163-2.801,2.212-5.906,0.606c-2.902-1.502-3.834-1.518-6.627-0.111c-1.783,0.9-4.84,2.02-6.781,2.488
	c-1.945,0.468-4.199,1.4-5.01,2.071c-2.377,1.973,1.814,7.715,7.719,10.572c3.215,1.556,5.543,3.641,6.232,5.585
	c0.607,1.706,1.896,4.507,2.861,6.226c1.574,2.8,1.562,3.199-0.131,3.848c-1.24,0.476-1.605,1.43-1.064,2.781
	c0.451,1.131,0.963,3.386,1.137,5.01c0.172,1.624,0.691,3.835,1.156,4.913c0.605,1.403,0.105,2.194-1.758,2.785
	c-2.072,0.658-3.469-0.135-6.875-3.902c-2.354-2.6-6.275-6.18-8.719-7.955s-6.818-6.391-9.727-10.257
	c-5.127-6.82-5.23-7.131-3.529-10.421c0.963-1.865,1.771-4.614,1.795-6.107c0.023-1.494,0.773-4.036,1.666-5.649
	c1.705-3.082,1.049-5.542-2.6-9.725c-2.395-2.747-6.654-0.688-5.58,2.697c0.99,3.119-2.047,4.129-5.539,1.844
	c-1.514-0.991-5-2.161-7.746-2.599c-4.715-0.753-5.064-0.608-6.285,2.598c-0.713,1.867-1.01,4.818-0.664,6.559
	c0.539,2.712,0.164,3.267-2.625,3.879c-1.898,0.417-5.148-0.076-7.799-1.183c-2.91-1.216-5.65-1.583-7.623-1.022
	c-1.693,0.481-7.422,0.919-12.729,0.972c-8.406,0.083-10.025,0.45-12.58,2.85c-1.613,1.515-3.551,5.236-4.307,8.268
	c-0.756,3.032-2.141,6.696-3.078,8.142c-1.619,2.499-1.463,2.752,3.166,5.113c5.023,2.563,10.502,3.238,14.654,1.807
	c3.203-1.104,12.975,6.513,16.021,12.493c1.25,2.449,3.316,5.012,4.594,5.694c4.822,2.582,5.803,19.521,1.77,30.596
	c-2.793,7.668-5.92,10.175-10.51,8.43c-1.754-0.667-3.365-1.212-3.582-1.212c-0.219,0-1.531,2.181-2.922,4.845
	c-1.822,3.5-2.178,5.263-1.279,6.346c1.721,2.074,0.447,4.771-2.994,6.339c-1.588,0.724-2.887,1.831-2.887,2.459
	s3.695,3.687,8.211,6.794c5.746,3.955,8.816,6.992,10.225,10.114c1.105,2.455,1.795,4.658,1.531,4.896s-2.678,1.542-5.363,2.896
	l-4.885,2.462l-2.939-6.747c-3.289-7.55-6.111-10.587-11.082-11.925c-2.502-0.673-3.375-1.628-3.375-3.697
	c0-1.896-1.225-3.506-3.828-5.031c-3.791-2.222-3.867-2.219-7.902,0.275c-4.039,2.496-4.084,2.498-5.324,0.18
	c-0.688-1.286-1.252-3.151-1.252-4.145c0-0.995-0.99-2.339-2.203-2.989c-1.807-0.966-2.945-0.382-6.264,3.207
	c-2.229,2.413-5.086,4.974-6.348,5.692c-1.959,1.113-2.062,1.584-0.713,3.21c0.869,1.048,3.873,3.187,6.674,4.752
	c4.455,2.49,5.309,2.631,6.811,1.129c1.43-1.428,2.592-1.48,6.898-0.311l5.184,1.407l-2.889,1.931
	c-5.357,3.581-7.047,5.46-7.811,8.692c-0.627,2.652-0.254,3.45,2.127,4.535c1.59,0.724,4.006,3.612,5.369,6.419
	s4.088,6.053,6.053,7.213c4.322,2.554,5.576,5.267,3.08,6.664c-2.328,1.303-1.217,3.25,1.855,3.25c3.678,0,3.699,2.194,0.143,14.858
	c-4.305,15.337-8.191,20.455-18.361,24.175c-4.006,1.465-8.877,2.752-10.824,2.86c-4.531,0.25-8.043,2.169-11.109,6.063
	l-2.432,3.093l-1.135-2.983c-1.48-3.894-4.873-4.872-9.746-2.812c-4.465,1.889-7.408,4.901-8.594,8.796
	c-1.062,3.485,2.699,9.615,8.926,14.548c5.113,4.051,10.85,14.213,12.197,21.606c1.172,6.431-0.904,10.652-6.473,13.164
	c-2.537,1.144-4.912,3.021-5.277,4.169c-0.875,2.759-6.119,6.194-7.08,4.639c-0.402-0.647-0.418-2.162-0.035-3.362
	c0.381-1.202,0.361-3.049-0.043-4.103c-0.582-1.517-1.227-1.653-3.092-0.655c-1.941,1.039-2.691,0.776-4.26-1.498
	c-3.854-5.589-15.025-14.569-18.123-14.569c-1.092,0-1.512,1.312-1.326,4.134c0.15,2.273-0.312,6.706-1.027,9.851
	c-1.168,5.123-1.049,6.062,1.15,9.035c1.35,1.824,2.789,4.654,3.199,6.287c0.416,1.658,3.832,5.444,7.738,8.577
	c6.51,5.222,7.195,6.253,9.936,14.927c1.619,5.125,2.943,9.822,2.943,10.438c0,2.003-2.467,1.189-7.615-2.507
	c-5.324-3.822-8.723-9.87-11.559-20.561c-1.23-4.642-2.58-6.631-6.41-9.448c-4.697-3.456-4.84-3.758-4.461-9.475
	c0.215-3.248,0.748-7.852,1.184-10.23c0.613-3.35,0.105-5.747-2.246-10.63c-1.672-3.468-3.648-8.793-4.393-11.834
	c-1.662-6.795-4.01-7.933-8.16-3.956c-1.717,1.646-3.453,2.989-3.857,2.989c-1.881,0-4.463-4.001-3.844-5.953
	c1.125-3.546-5.793-15.902-9.842-17.581c-2.217-0.917-4.242-3.143-5.598-6.147c-2.355-5.225-4.996-7.223-7.639-5.777
	c-0.957,0.524-4.791,1.579-8.52,2.343c-6.834,1.402-9.285,3.473-8.35,7.05c0.344,1.316-0.852,2.59-3.719,3.956
	c-2.324,1.108-4.828,3.339-5.566,4.954c-0.736,1.617-2.357,3.264-3.604,3.658c-1.244,0.396-3.166,2.202-4.27,4.018
	c-1.105,1.812-4.391,5.129-7.303,7.366c-3.982,3.062-5.229,4.776-5.029,6.932c1.156,12.595-0.619,23.132-4.955,29.39
	c-4.23,6.104-4.527,6.274-8.105,4.645c-1.971-0.897-3.184-2.65-3.686-5.326c-0.41-2.194-2.789-8.375-5.285-13.736
	c-15.104-32.436-17.336-38.625-16.049-44.482c0.869-3.957-1.217-9.93-3.232-9.254c-0.807,0.271-1.482,1.245-1.5,2.163
	c-0.1,5.393-6.156,6.22-10.887,1.488l-3.135-3.135l2.693-0.998c3.035-1.122,2.756-4.149-0.33-3.595
	c-1.096,0.196-3.605-0.998-5.578-2.657c-1.971-1.659-4.037-3.017-4.596-3.017c-0.555,0-1.35-1.068-1.764-2.375
	c-1.088-3.43-7.354-6.414-10.494-4.998c-2.826,1.274-28.463,1.008-32.754-0.34c-1.545-0.485-4.404-2.708-6.354-4.938
	c-3.521-4.03-3.576-4.046-8.857-2.623c-5.006,1.349-5.732,1.222-12.475-2.181c-5.826-2.941-7.57-4.527-9.369-8.515
	c-2.295-5.088-7.391-8.772-10.488-7.583c-0.977,0.375-2.115,2.235-2.533,4.134c-0.6,2.728,0.012,4.5,2.908,8.438
	c2.016,2.742,4.213,7.017,4.881,9.5c1.439,5.335,4.273,6.922,6.625,3.706c1.418-1.941,1.801-2.008,2.762-0.487
	c0.613,0.971,0.945,2.297,0.736,2.947c-0.658,2.042,6.158,5.4,9.338,4.603c1.607-0.402,5.041-3.141,7.631-6.083
	c4.08-4.636,5.506-4.949,4.809-1.056c-0.471,2.62,1.594,5.691,5.006,7.455c5.27,2.725,12.609,8.794,12.609,10.426
	c0,0.753-1.379,2.657-3.064,4.231c-1.689,1.574-4.115,4.906-5.396,7.404c-3.111,6.068-12.131,14.946-15.186,14.946
	c-3.529,0-8.781,2.98-10.871,6.171c-0.99,1.511-3.594,3.644-5.785,4.737c-11.227,5.604-24.742,11.285-28.545,11.999
	c-4.066,0.763-4.396,0.578-6.551-3.67c-1.248-2.461-2.664-7.397-3.146-10.971c-0.627-4.646-1.844-7.601-4.273-10.376
	c-1.869-2.134-3.396-4.392-3.396-5.019c0-0.626-2.133-3.334-4.734-6.02c-3.244-3.343-5.342-6.971-6.656-11.517
	c-1.055-3.65-3.201-8.23-4.771-10.18c-10.838-13.461-14.049-18.207-15.664-23.163c-2.143-6.569-3.953-7.63-4.789-2.805l-0.592,3.425
	l-3.996-5.045c-6.156-7.773-6.934-4.24-1.152,5.25c2.734,4.491,7.094,12.417,9.688,17.613c2.596,5.197,5.957,11.094,7.475,13.104
	c1.561,2.069,2.756,5.305,2.756,7.459c0,4.451,1.328,7.229,6.543,13.688c2.1,2.6,4.172,6.394,4.604,8.432
	c0.561,2.613,2.842,5.348,7.74,9.277c7.447,5.976,12.273,12.21,13.475,17.406c0.447,1.953,2.152,3.956,4.314,5.074
	c3.293,1.703,4.453,1.656,14.861-0.599c6.209-1.346,12.787-3.221,14.617-4.166l3.326-1.722l0.791,4.675
	c0.717,4.248-0.055,6.295-8.463,22.422c-9.041,17.339-9.463,17.911-18.453,25.008c-5.059,3.995-10.354,8.886-11.766,10.868
	c-1.412,1.981-5.928,7.337-10.037,11.897c-11.99,13.313-13.621,25.022-5.668,40.717c2.02,3.986,2.809,7.004,2.33,8.911
	c-0.398,1.587-0.143,5.594,0.566,8.905c1.119,5.214,0.99,6.607-0.943,10.398c-2.793,5.473-5.014,7.438-12.82,11.352
	c-3.41,1.709-6.199,3.611-6.199,4.229c0,0.618-2.393,3.814-5.316,7.106c-2.922,3.291-5.314,6.519-5.314,7.173
	c0,0.653,1.098,3.336,2.438,5.961c4.016,7.87,1.314,13.573-8.307,17.561c-4.061,1.681-5.393,5.111-4.389,11.297
	c0.525,3.24,0.191,4.317-1.645,5.302c-1.268,0.678-3.559,3.203-5.092,5.611c-4.842,7.604-18.759,21.058-25.082,24.246
	c-5.276,2.66-6.625,2.896-10.502,1.825c-3.417-0.943-6.176-0.795-11.905,0.646C750.625,612.254,751.609,612.35,748.015,608.756
	L748.015,608.756z"/>
<path d="M903.578,232.05c3.049-1.577,3.484-2.445,3.484-6.942c0-3.224-0.688-5.712-1.848-6.675
	c-1.018-0.844-2.666-3.113-3.664-5.041c-1.648-3.19-1.643-3.441,0.078-2.781c2.271,0.872,5.434-0.177,5.434-1.801
	c0-0.643-1.098-2.711-2.441-4.597c-2.021-2.841-2.832-3.22-4.725-2.208c-1.527,0.818-2.281,0.826-2.281,0.023
	c0-0.659-2.109-2.274-4.686-3.589c-5.701-2.909-7.73-6.132-5.951-9.455c1.346-2.515,6.154-4.277,8.207-3.008
	c2.768,1.711,3.584-0.811,1.301-4.019c-5.539-7.779-13.252-7.268-22.818,1.515c-6.174,5.667-6.709,7.173-3.219,9.042
	c1.301,0.695,2.363,2.055,2.363,3.021c0,0.966,2.1,4.036,4.668,6.821c5.914,6.416,6.998,9.347,6.268,16.939l-0.59,6.113l8.113,4.163
	c4.463,2.29,8.273,4.19,8.469,4.222C899.935,233.826,901.662,233.041,903.578,232.05L903.578,232.05z"/>
<path d="M871.041,561.96c-3.336-1.892-3.809-2.89-4.68-9.861c-0.697-5.569-0.406-6.78,2.926-12.196
	c3.389-5.506,3.631-6.565,2.885-12.544c-1.078-8.635,0.758-13.171,5.775-14.271c4.727-1.037,14.955-10.067,17.406-15.368l1.873-4.05
	l1.303,2.856c3.275,7.188,2.941,10.347-2.758,26.113c-3.049,8.437-6.318,18.527-7.268,22.426
	c-3.037,12.474-4.764,15.48-9.738,16.972C873.47,563.623,873.982,563.628,871.041,561.96L871.041,561.96z"/>
<path d="M1452.835,541.426c-3.768-4.123-6.023-7.66-6.023-9.447c0-3.964,0.637-3.617,4.045,2.197
	c1.631,2.781,4.576,6.603,6.545,8.489c1.971,1.888,3.584,3.864,3.584,4.392C1460.986,549.329,1458.47,547.592,1452.835,541.426
	L1452.835,541.426z"/>
<path d="M925.96,539.75c0-0.65,0.531-1.182,1.18-1.182c0.65,0,1.182,0.53,1.182,1.182c0,0.649-0.531,1.181-1.182,1.181
	C926.492,540.931,925.96,540.399,925.96,539.75z"/>
<path d="M1547.923,537.596c-0.418-0.675-0.184-1.582,0.521-2.017c1.754-1.085,2.375-0.222,1.203,1.674
	C1549.021,538.268,1548.414,538.389,1547.923,537.596L1547.923,537.596z"/>
<path d="M934.228,535.686c0-0.285,0.531-0.85,1.18-1.251c0.65-0.4,1.182-0.167,1.182,0.521c0,0.688-0.531,1.25-1.182,1.25
	C934.759,536.206,934.228,535.972,934.228,535.686z"/>
<path d="M1517.208,523.698c-1.15-2.997,0.311-4.048,3.566-2.564c2.809,1.28,2.869,1.477,0.91,2.907
	C1518.949,526.044,1518.083,525.979,1517.208,523.698z"/>
<path d="M1524.691,518.446c-2.307-1.428-0.709-2.565,2.963-2.111c2.877,0.354,2.943,0.485,0.889,1.752
	C1527.23,518.896,1525.658,519.043,1524.691,518.446L1524.691,518.446z"/>
<path d="M1469.548,514.112c-2.426-5.224-1.576-7.229,0.932-2.202c2.611,5.23,2.656,5.402,1.43,5.39
	C1471.423,517.295,1470.361,515.86,1469.548,514.112z"/>
<path d="M1474.07,513.274c-0.051-1.245,0.229-1.943,0.621-1.552c0.393,0.393,0.434,1.411,0.094,2.265
	C1474.408,514.93,1474.126,514.649,1474.07,513.274L1474.07,513.274z"/>
<path d="M1570.222,501.935c-1.082-1.749-0.057-2.643,2.467-2.149c1.844,0.359,1.863,0.552,0.197,1.934
	C1571.558,502.818,1570.806,502.88,1570.222,501.935L1570.222,501.935z"/>
<path d="M872.222,496.05c-0.402-0.648-0.168-1.181,0.52-1.181s1.252,0.531,1.252,1.181c0,0.65-0.234,1.183-0.521,1.183
	S872.623,496.699,872.222,496.05z"/>
<path d="M1390.712,484.954c-7.475-2.357-10.863-4.547-13.805-8.919c-3.361-4.994-9.512-8.774-12.652-7.777
	c-1.27,0.402-3.406,2.594-4.748,4.868c-2.285,3.873-2.725,4.087-6.877,3.349c-2.441-0.434-5.85-2.104-7.574-3.713
	c-2.193-2.045-3.875-2.69-5.586-2.146c-1.348,0.428-3.299,0.302-4.338-0.279c-1.623-0.908-1.463-1.335,1.133-3.036
	c3.008-1.971,3.012-1.997,0.994-6.229c-1.621-3.399-3.857-5.171-11.17-8.849c-5.027-2.527-10.713-4.597-12.633-4.597
	c-4.393,0-6.205-4.049-2.896-6.468c1.967-1.438,1.68-1.797-3.455-4.291c-5.451-2.648-5.529-2.761-2.926-4.207
	c1.473-0.816,3.842-1.504,5.268-1.527c2.766-0.045,6.268,3.947,6.268,7.148c0,1.065,1.148,3.398,2.551,5.185
	c2.518,3.197,2.58,3.211,4.432,0.901c1.029-1.288,4.324-3.746,7.32-5.463l5.443-3.12l7.547,3.405
	c4.152,1.871,10.043,4.304,13.096,5.402c3.053,1.101,9.152,4.368,13.562,7.264c8.416,5.528,12.074,10.188,9.977,12.717
	c-1.709,2.061,5.006,11.442,11.957,16.708C1399.238,487.066,1399.109,487.602,1390.712,484.954L1390.712,484.954z"/>
<path d="M1442.113,484.858c-0.932-1.122-1.021-1.801-0.238-1.801c1.428,0,3.092,2.24,2.271,3.061
	C1443.849,486.415,1442.933,485.849,1442.113,484.858L1442.113,484.858z"/>
<path d="M1243.667,480.051c-1.711-0.945-2.207-1.643-1.18-1.657c2.107-0.027,5.48,1.938,4.688,2.732
	C1246.869,481.433,1245.291,480.949,1243.667,480.051z"/>
<path d="M1263.636,478.49c3.348-4.704,8.59-6.717,13.438-5.16c3.531,1.134,3.586,1.229,0.781,1.34
	c-1.658,0.066-5.531,1.715-8.604,3.664C1262.24,482.781,1260.546,482.828,1263.636,478.49L1263.636,478.49z"/>
<path d="M1435.001,480.105c-1.596-1.924-1.213-2.163,1.676-1.056c1.027,0.396,1.867,1.191,1.867,1.771
	C1438.544,482.456,1436.632,482.069,1435.001,480.105z"/>
<path d="M1440.533,479.062c-0.443-1.156-0.773-2.989-0.732-4.073c0.051-1.306,0.461-1.007,1.215,0.882
	c0.627,1.568,0.957,3.4,0.732,4.073C1441.525,480.617,1440.978,480.221,1440.533,479.062L1440.533,479.062z"/>
<path d="M1531.849,480.176c0-0.287,0.531-0.85,1.182-1.251c0.65-0.4,1.182-0.167,1.182,0.521c0,0.688-0.531,1.251-1.182,1.251
	S1531.849,480.462,1531.849,480.176z"/>
<path d="M1229.783,475.215c-0.814-0.344-1.182-1.112-0.814-1.706c0.9-1.46,8.471-1.379,9.385,0.102
	c0.402,0.648,0.035,1.188-0.814,1.196c-0.852,0.01-2.607,0.245-3.908,0.525C1232.33,475.611,1230.599,475.559,1229.783,475.215
	L1229.783,475.215z"/>
<path d="M1247.318,474.328c-2.146-2.586,0.326-3.373,5.891-1.875c5.605,1.51,5.588,1.745-0.223,2.794
	C1249.968,475.792,1248.31,475.523,1247.318,474.328z"/>
<path d="M1424.646,473.609c-0.816-1.31-0.963-2.361-0.326-2.361c0.633,0,1.719,1.062,2.414,2.361s0.842,2.361,0.326,2.361
	S1425.458,474.909,1424.646,473.609z"/>
<path d="M1432.042,472.422c-3.158-3.489-1.467-4.038,1.783-0.579c1.521,1.621,2.227,2.948,1.562,2.948
	C1434.726,474.791,1433.222,473.725,1432.042,472.422L1432.042,472.422z"/>
<path d="M1210.599,472.217c-4.223-0.586-10.176-1.885-13.23-2.887c-3.053-1.002-6.652-1.473-7.996-1.046
	c-2.703,0.857-14.207-2.523-14.207-4.177c0-3.775,10.588-4.062,16.215-0.438c2.104,1.354,3.756,1.442,8.197,0.447
	c4.92-1.104,5.945-0.967,8.836,1.171c1.799,1.329,3.805,2.417,4.459,2.417c2.336,0,9.424,3.951,8.826,4.919
	c-0.336,0.543-1.244,0.913-2.018,0.822C1218.908,473.354,1214.82,472.802,1210.599,472.217L1210.599,472.217z"/>
<path d="M1422.601,466.523c-1.176-1.301-1.607-2.362-0.957-2.362s2.143,1.062,3.318,2.362c1.174,1.299,1.607,2.361,0.957,2.361
	S1423.777,467.822,1422.601,466.523L1422.601,466.523z"/>
<path d="M1415.152,465.027c-0.67-0.81-1.561-3.062-1.979-5.008c-0.674-3.133-0.6-3.267,0.66-1.174
	c0.781,1.299,2.178,3.239,3.104,4.312c0.982,1.137,1.215,2.239,0.559,2.645C1416.878,466.185,1415.824,465.836,1415.152,465.027z"/>
<path d="M1390.14,461.272l-2.936-1.625l4.549-0.854c2.502-0.47,6.348-2.433,8.545-4.362c2.398-2.105,3.988-2.868,3.977-1.908
	c-0.025,2.4-1.479,4.252-5.895,7.509C1393.771,463.435,1393.988,463.402,1390.14,461.272L1390.14,461.272z"/>
<path d="M1168.587,456.674c-4.338-2.473-12.164-12.036-14.713-17.98c-1.375-3.206-4.523-8.487-7-11.735
	c-2.475-3.247-5.316-7.499-6.314-9.448c-0.996-1.947-4.025-5.669-6.732-8.268c-5.703-5.479-9.211-11.235-6.82-11.194
	c3.1,0.054,11.076,4.489,14.498,8.062c9.439,9.854,11.373,11.606,15.83,14.354c4.301,2.649,6.336,5.406,6.541,8.857
	c0.037,0.648,1.262,2.51,2.717,4.134c1.457,1.624,4.205,4.679,6.105,6.787c1.902,2.108,3.803,5.399,4.223,7.312
	C1178.296,453.814,1173.255,459.332,1168.587,456.674L1168.587,456.674z"/>
<path d="M930.685,455.894c0-0.648,0.531-1.181,1.18-1.181c0.65,0,1.182,0.531,1.182,1.181c0,0.65-0.531,1.183-1.182,1.183
	C931.216,457.075,930.685,456.543,930.685,455.894z"/>
<path d="M1243.072,455.883c-0.406-0.655-0.408-2.226-0.012-3.489c0.4-1.266-0.088-3.542-1.086-5.067
	c-1.646-2.51-1.631-3.036,0.166-5.601c1.09-1.557,2.375-5.734,2.857-9.286c0.596-4.383,1.77-7.351,3.654-9.234
	c2.576-2.577,3.225-2.691,9.02-1.593c4.975,0.942,6.934,0.827,9.641-0.573c4.535-2.346,4.867-2.241,3.361,1.063
	c-1.916,4.202-5.74,5.546-9.773,3.433c-7.203-3.773-16.76,1.835-11.717,6.876c1.852,1.854,2.877,2.021,6.311,1.037
	c5.883-1.688,8.203-1.377,4.549,0.607c-4.135,2.247-4.92,4.74-2.789,8.862c0.971,1.875,1.766,4.783,1.766,6.463
	c0,2.688-0.283,2.901-2.363,1.787c-1.301-0.695-3.176-3.208-4.168-5.584c-1.791-4.285-1.822-4.301-4.115-2.009
	c-2.01,2.01-2.145,2.902-1.045,6.887c0.994,3.601,0.928,4.791-0.312,5.577c-2.088,1.322-3.057,1.284-3.947-0.156H1243.072
	L1243.072,455.883z"/>
<path d="M1405.115,449.584c-1.113-1.699-3.662-3.938-5.666-4.973c-2.004-1.036-3.377-2.149-3.051-2.476
	c1.836-1.836,12.084,6.505,11.211,9.125C1407.341,452.067,1406.269,451.347,1405.115,449.584L1405.115,449.584z"/>
<path d="M1219.644,445.652c-1.783-0.935-4.184-1.397-5.336-1.032c-2.938,0.933-14.609-1.442-15.766-3.208
	c-0.92-1.405-3.625-10.06-5.072-16.228c-0.398-1.694,0-3.896,0.93-5.169c1.352-1.847,2.051-1.986,4.191-0.842
	c2.26,1.21,2.738,1.003,3.977-1.717c0.775-1.7,3.354-4.084,5.732-5.297c2.518-1.284,4.936-3.688,5.795-5.759
	c0.988-2.388,2.793-3.99,5.496-4.884c2.213-0.729,5.41-3.146,7.104-5.365c1.695-2.222,3.711-4.037,4.48-4.037s3.1,1.754,5.178,3.897
	l3.779,3.898l-3.029,4.074c-3.441,4.627-3.26,8.606,0.639,14.083l2.361,3.314l-2.941,1.927c-1.619,1.062-2.939,2.58-2.938,3.378
	c0.012,2.704-7.559,18.298-9.455,19.481C1223.449,446.997,1221.912,446.841,1219.644,445.652L1219.644,445.652z"/>
<path d="M1288.253,445.631c-2.443-0.639-2.783-2.729-0.443-2.729c0.895,0,3.393,0.354,5.555,0.786
	c3.33,0.665,3.578,0.924,1.625,1.688C1292.425,446.38,1291.285,446.423,1288.253,445.631z"/>
<path d="M1476.339,430.57c0-0.286,0.531-0.851,1.182-1.251c0.648-0.401,1.18-0.167,1.18,0.521c0,0.688-0.531,1.251-1.18,1.251
	C1476.871,431.091,1476.339,430.856,1476.339,430.57z"/>
<path d="M1284.117,427.367c-0.945-0.944-1-2.039-0.182-3.567c0.648-1.214,0.865-2.716,0.48-3.338
	c-1.066-1.724,1.604-5.905,3.768-5.905c1.736,0,1.73,0.202-0.076,2.196c-1.561,1.726-1.734,2.865-0.807,5.305
	c1.875,4.932-0.164,8.33-3.188,5.311L1284.117,427.367L1284.117,427.367z"/>
<path d="M690.927,423.484c0-0.287,0.531-0.851,1.182-1.251c0.649-0.401,1.182-0.167,1.182,0.521c0,0.688-0.531,1.251-1.182,1.251
	S690.927,423.771,690.927,423.484z"/>
<path d="M1510,420.462c-0.4-0.649-0.166-1.182,0.521-1.182s1.25,0.53,1.25,1.182c0,0.649-0.234,1.181-0.52,1.181
	C1510.964,421.643,1510.402,421.111,1510,420.462z"/>
<path d="M698.014,409.311c0-0.285,0.531-0.849,1.182-1.25c0.649-0.4,1.181-0.167,1.181,0.521c0,0.688-0.531,1.251-1.181,1.251
	C698.545,409.833,698.014,409.598,698.014,409.311z"/>
<path d="M1266.121,391.554c-2.252-5.255-2.553-5.491-6.02-4.729c-3.455,0.759-3.576,0.667-2.281-1.753
	c1.072-2.004,2.066-2.401,4.607-1.844c2.449,0.538,4.014-0.007,6.412-2.229c1.746-1.618,3.186-3.896,3.201-5.064
	c0.037-2.98,4.422,7.017,5.424,12.361c0.76,4.058,0.664,4.278-1.182,2.75c-2.74-2.27-5.377,0.085-3.129,2.793
	c0.895,1.081,1.012,1.822,0.281,1.822c-0.676,0-2.064,0.32-3.088,0.713C1268.978,396.898,1267.871,395.636,1266.121,391.554
	L1266.121,391.554z"/>
<path d="M1050.777,393.641c-1.32-2.146-2.07-11.77-1.117-14.322c1.012-2.709,1.088-2.677,4.098,1.771
	c3.605,5.329,4.76,8.747,3.57,10.572C1056.189,393.408,1051.505,394.823,1050.777,393.641L1050.777,393.641z"/>
<path d="M1314.533,387.531c0-0.65,0.531-1.51,1.182-1.911c0.648-0.401,1.18-0.198,1.18,0.451c0,0.648-0.529,1.509-1.18,1.911
	C1315.064,388.384,1314.533,388.181,1314.533,387.531z"/>
<path d="M1499.96,387.392c0-0.648,0.234-1.181,0.52-1.181c0.287,0,0.852,0.531,1.25,1.181c0.402,0.649,0.168,1.182-0.52,1.182
	C1500.523,388.572,1499.96,388.041,1499.96,387.392z"/>
<path d="M1231.857,380.568c0-0.506,2.369-3.562,5.262-6.791c4.242-4.733,5.273-5.402,5.316-3.447
	c0.029,1.335-1.746,4.391-3.945,6.792C1234.761,381.192,1231.857,382.701,1231.857,380.568z"/>
<path d="M1257.439,377.417c-0.43-1.122-0.344-2.824,0.193-3.784c0.832-1.485,1.18-1.501,2.344-0.097
	c1.045,1.258,0.998,2.153-0.193,3.783C1258.318,379.322,1258.171,379.328,1257.439,377.417z"/>
<path d="M352.985,372.814c0.724-0.871,0.966-1.936,0.539-2.362c-0.427-0.427,0.325-0.776,1.671-0.776
	c1.867,0,2.302,0.562,1.831,2.361c-0.359,1.372-1.611,2.362-2.987,2.362C352.191,374.399,351.959,374.051,352.985,372.814
	L352.985,372.814z"/>
<path d="M1265.365,372.502c-0.441-1.229-1.016-2.635-1.279-3.122c-0.262-0.487,0.021-0.886,0.635-0.886
	c1.178,0,2.838,4.85,1.961,5.728C1266.396,374.506,1265.804,373.731,1265.365,372.502z"/>
<path d="M1253.396,369.421c-1.66-1.999-0.043-4.845,2.438-4.291c1.557,0.348,1.613,0.839,0.365,3.149
	C1254.994,370.508,1254.474,370.72,1253.396,369.421z"/>
<path d="M1267.359,365.361c-1.355-1.724-2.268-3.33-2.025-3.571c0.959-0.96,4.279,1.155,6.047,3.851
	C1274.095,369.786,1270.652,369.547,1267.359,365.361z"/>
<path d="M1247.943,360.789c-1.053-1.052-1.912-2.523-1.912-3.271c0-0.746,1.166-0.191,2.592,1.233s2.285,2.897,1.912,3.271
	S1248.994,361.841,1247.943,360.789z"/>
<path d="M320.858,360.62c-0.433-0.434-0.788-1.336-0.788-2.008c0-0.739,0.55-0.67,1.397,0.178c0.769,0.769,1.123,1.672,0.788,2.008
	S321.291,361.054,320.858,360.62z"/>
<path d="M314.165,359.046c0-0.648,0.234-1.182,0.521-1.182c0.286,0,0.849,0.532,1.25,1.182c0.401,0.65,0.167,1.181-0.521,1.181
	C314.728,360.227,314.165,359.695,314.165,359.046z"/>
<path d="M369.675,356.684c0-0.648,0.234-1.181,0.521-1.181c0.287,0,0.849,0.531,1.251,1.181c0.401,0.649,0.167,1.183-0.521,1.183
	S369.675,357.333,369.675,356.684z"/>
<path d="M1259.822,356.504c-1.184-0.668-3.428-0.895-4.988-0.503c-2.285,0.574-3.863-0.346-8.145-4.75
	c-6.047-6.223-7.223-8.847-5.447-12.161c0.686-1.281,1.246-3.927,1.246-5.88c0-6.411,4.293-6.152,7.441,0.448
	c1.744,3.657,1.756,4.441,0.115,8.365c-1.764,4.223-1.73,4.41,1.418,7.695c2.271,2.373,3.979,3.18,5.775,2.729
	c1.52-0.381,3.154,0.092,4.051,1.168C1263.416,356.178,1262.488,358.007,1259.822,356.504z"/>
<path d="M362.589,349.076c0-0.286,0.532-0.85,1.181-1.251s1.181-0.167,1.181,0.521c0,0.688-0.532,1.251-1.181,1.251
	S362.589,349.363,362.589,349.076z"/>
<path d="M548.018,344.873c0-0.649,0.531-1.182,1.182-1.182c0.649,0,1.181,0.531,1.181,1.182s-0.531,1.181-1.181,1.181
	C548.549,346.054,548.018,345.522,548.018,344.873z"/>
<path d="M359.046,340.288c0-0.649,0.531-1.51,1.181-1.911c0.649-0.401,1.181-0.198,1.181,0.451c0,0.648-0.531,1.51-1.181,1.911
	S359.046,340.938,359.046,340.288z"/>
<path d="M349.015,335.438c-0.414-0.669,0.06-0.866,1.111-0.464c2.046,0.785,2.42,1.633,0.722,1.633
	C350.237,336.605,349.412,336.08,349.015,335.438z"/>
<path d="M536.797,335.425c-0.4-0.649-0.167-1.182,0.521-1.182c0.688,0,1.25,0.531,1.25,1.182c0,0.649-0.234,1.182-0.521,1.182
	S537.198,336.074,536.797,335.425z"/>
<path d="M353.731,333.062c-0.401-0.65-0.167-1.183,0.521-1.183s1.25,0.531,1.25,1.183c0,0.648-0.234,1.181-0.521,1.181
	C354.695,334.243,354.132,333.712,353.731,333.062z"/>
<path d="M359.046,333.062c0-0.65,0.234-1.183,0.521-1.183s0.85,0.531,1.251,1.183c0.401,0.648,0.167,1.181-0.521,1.181
	S359.046,333.712,359.046,333.062z"/>
<path d="M277.847,329.918c-0.812-0.328-1.477-1.083-1.477-1.679c0-1.702,5.214-1.266,7.747,0.65c2.178,1.647,2.116,1.731-1.25,1.68
	C280.918,330.539,278.659,330.245,277.847,329.918z"/>
<path d="M307.733,329.248c-1.06-0.593-3.399-0.754-5.2-0.358c-1.801,0.396-4.571,0.2-6.156-0.434c-2.548-1.021-2.322-1.14,1.95-1.04
	c6.279,0.146,7.956-0.875,6.351-3.874c-1.139-2.128-0.797-2.29,4.838-2.29c5.45,0,13.313,2.499,14.646,4.656
	C325.048,327.342,309.848,330.432,307.733,329.248L307.733,329.248z"/>
<path d="M330.388,329.994c-1.399-1.399,0.34-2.837,3.433-2.837c1.857,0,2.798,0.557,2.495,1.476
	C335.771,330.286,331.631,331.237,330.388,329.994z"/>
<path d="M1184.867,328.116c-3.129-3.127-0.033-6.864,5.684-6.864c2.535,0,2.537,0.021,0.363,3.743
	C1188.378,329.335,1186.865,330.116,1184.867,328.116z"/>
<path d="M340.148,327.874c0-0.256,0.797-0.771,1.772-1.146c0.974-0.373,1.771-0.164,1.771,0.466c0,0.629-0.797,1.144-1.771,1.144
	S340.148,328.129,340.148,327.874z"/>
<path d="M289.093,319.407c-0.364-0.364-2.857-0.692-5.541-0.729c-3.701-0.052-4.589-0.415-3.681-1.51
	c0.877-1.057-0.383-2.465-4.725-5.278c-8.513-5.516-13.267-6.594-18.986-4.306c-5.363,2.146-5.774,2.207-5.774,0.855
	c0-2.474,9.4-5.191,16.168-4.678c6.473,0.492,10.097,1.87,22.807,8.669c10.447,5.591,10.458,5.601,7.087,6.562
	C292.62,320.085,289.923,320.236,289.093,319.407z"/>
<path d="M297.63,309.44c2.29-1.479,3.543-1.479,3.543,0c0,0.649-1.196,1.173-2.658,1.162
	C296.367,310.589,296.197,310.366,297.63,309.44z"/>
<path d="M1238.236,307.346c-0.715-0.472-1.945-2.08-2.732-3.574c-1.186-2.254-1.062-3.348,0.721-6.401
	c2.754-4.717,4.615-5.305,5.51-1.743C1242.673,299.374,1239.955,308.482,1238.236,307.346z"/>
<path d="M305.385,305.772c0.788-1.276,5.237-1.422,5.236-0.171c0,0.487-1.326,0.963-2.945,1.057
	C306.057,306.751,305.026,306.353,305.385,305.772L305.385,305.772z"/>
<path d="M282.029,294.389c-1.889-2.167-1.614-5.027,0.483-5.027c0.671,0,0.949,1.038,0.618,2.306s0.004,2.524,0.748,2.791
	c0.743,0.267,1.038,0.827,0.655,1.245C284.15,296.122,283.023,295.53,282.029,294.389z"/>
<path d="M288.89,285.111c-0.42-1.096-0.499-2.257-0.174-2.583c0.325-0.325,0.935,0.306,1.355,1.401
	c0.42,1.095,0.499,2.257,0.174,2.582C289.92,286.836,289.311,286.206,288.89,285.111z"/>
<path d="M281.489,284.048c0-0.975,1.012-1.771,2.25-1.771c2,0,2.053,0.197,0.478,1.771c-0.974,0.974-1.987,1.771-2.25,1.771
	C281.704,285.819,281.489,285.022,281.489,284.048z"/>
<path d="M1272.013,258.155c0-0.924-1.289-3.214-2.865-5.088c-3.744-4.449-2.418-7.418,2.014-4.513
	c3.188,2.088,4.854,6.354,3.678,9.417C1273.949,260.293,1272.013,260.42,1272.013,258.155z"/>
<path d="M355.502,251.047c0-0.287,0.532-0.849,1.181-1.25c0.649-0.402,1.181-0.167,1.181,0.521s-0.532,1.251-1.181,1.251
	S355.502,251.334,355.502,251.047z"/>
<path d="M1278.597,249.596c-0.766-1.995,1.041-3.881,3.752-3.915c1.877-0.023,1.912,2.617,0.059,4.47
	C1280.482,252.077,1279.494,251.933,1278.597,249.596L1278.597,249.596z"/>
<path d="M1289.388,245.285c-2.295-3.5-5.533-3.98-12.949-1.921c-3.016,0.837-5.092,0.847-6.496,0.029
	c-1.135-0.661-1.439-1.218-0.678-1.237c0.764-0.021,2.988-1.383,4.945-3.03c2.525-2.125,4.375-2.789,6.369-2.289
	c2.113,0.531,4.395-0.484,9.193-4.09c9.346-7.021,10.189-9.235,6.389-16.737c-3.648-7.2-2.631-9.518,2.773-6.325
	c3.938,2.325,7.645,8.982,6.564,11.79c-0.387,1.011,0.191,4.181,1.285,7.046c1.549,4.054,1.695,5.759,0.662,7.689
	c-1.518,2.834-5.738,4.729-10.537,4.729c-2.691,0-3.494,0.69-4.373,3.756l-1.078,3.755L1289.388,245.285L1289.388,245.285z"/>
<path d="M810.923,241.253c-1.41-1.41-0.66-2.677,1.584-2.677c1.262,0,2.621-0.532,3.023-1.181c1.098-1.776,2.969-1.42,2.26,0.431
	C817.062,239.725,811.947,242.277,810.923,241.253z"/>
<path d="M770.649,239.21l-3.544-1.623l4.725-0.08c5.885-0.1,10.219,1.004,9.366,2.384
	C780.246,241.429,774.716,241.072,770.649,239.21L770.649,239.21z"/>
<path d="M722.938,227.428c-4.728-2.42-4.949-2.722-2.481-3.367c2.955-0.772,9.497,0.189,9.363,1.376
	c-0.046,0.406-0.444,1.618-0.887,2.694C728.208,229.899,727.633,229.832,722.938,227.428z"/>
<path d="M699.265,214.65c-1.021-2.932-0.94-4.054,0.388-5.383c2.4-2.401,4.268-0.713,4.268,3.86
	C703.919,218.528,700.955,219.498,699.265,214.65L699.265,214.65z"/>
<path d="M671.569,215.631c0.838-2.183,4.432-2.553,3.709-0.381c-0.271,0.812-1.376,1.648-2.456,1.857
	C671.451,217.374,671.072,216.927,671.569,215.631L671.569,215.631z"/>
<path d="M1288.683,202.15c-2.162-3.036-2.223-3.596-0.625-5.875c1.568-2.239,1.562-2.91-0.053-6.034
	c-2.658-5.138-2.285-5.449,2.322-1.935c2.275,1.737,6.771,3.94,9.988,4.895c6.645,1.974,8.25,3.523,4.783,4.623
	c-1.309,0.415-2.379,1.526-2.379,2.47c0,1.284-0.812,1.506-3.248,0.883c-6.23-1.595-8.002-1.205-7.604,1.672
	C1292.361,206.374,1291.566,206.2,1288.683,202.15L1288.683,202.15z"/>
<path d="M701.163,203.538c-1.37-1.37-0.854-3.659,0.984-4.364c1.278-0.491,1.771,0.129,1.771,2.236
	C703.919,204.245,702.763,205.138,701.163,203.538z"/>
<path d="M1281.187,178.637c-1.002-1.137-3.416-5.257-5.365-9.156c-1.951-3.898-7.105-11.058-11.455-15.91
	c-4.861-5.421-7.332-9.015-6.408-9.323c0.828-0.276,2.604,0.959,3.941,2.744c3.25,4.327,7.25,8.084,13.564,12.737
	c5.234,3.857,7.822,7.427,4.445,6.131c-3.896-1.494-2.922,2.053,2.117,7.727c2.938,3.308,5.342,6.262,5.342,6.565
	C1287.369,181.589,1282.804,180.47,1281.187,178.637L1281.187,178.637z"/>
<path d="M416.918,176.57c0-0.975,0.515-1.771,1.144-1.771s0.838,0.797,0.464,1.771c-0.374,0.974-0.889,1.771-1.144,1.771
	C417.127,178.341,416.918,177.544,416.918,176.57z"/>
<path d="M410.747,172.759l-4.4-0.461l8.28-8.198c4.554-4.509,8.875-8.198,9.602-8.198c0.77,0,0.538,0.868-0.548,2.068
	c-2.459,2.717-0.781,5.769,3.711,6.756c1.962,0.431,3.917,1.934,4.674,3.592c1.213,2.662,1.007,2.933-3.085,4.069
	C424.688,173.579,419.562,173.684,410.747,172.759L410.747,172.759z"/>
<path d="M122.957,164.286c-4.091-3.822-4.548-5.432-1.835-6.473c2.43-0.932,6.915,2.107,8.614,5.838
	c1.784,3.915,1.752,4.062-0.874,4.062C127.631,167.712,124.974,166.17,122.957,164.286z"/>
<path d="M643.094,158.285c1.299-0.641,3.855-1.704,5.682-2.363c4.021-1.451,3.354-2.997-1.731-4.014
	c-3.49-0.698-3.612-0.875-1.616-2.336c1.188-0.869,1.815-2.14,1.393-2.825c-0.434-0.7,0.781-1.786,2.771-2.48
	c1.948-0.679,3.542-1.759,3.542-2.4c0-2.728-2.462-7.317-3.83-7.139c-3.151,0.411-4.612-0.145-4.104-1.562
	c0.291-0.812,0.052-2.407-0.533-3.543c-1.521-2.956,1.973-9.069,5.221-9.135c0.487-0.009,0.753,0.634,0.591,1.43
	c-0.163,0.797,0.952,1.638,2.478,1.869l2.771,0.42l-2.647,2.819l-2.648,2.819l2.985,1.135c3.205,1.218,6.294,5.188,9.438,12.13
	c1.508,3.326,2.498,4.196,4.258,3.736c3.608-0.944,4.037,1.502,0.65,3.721c-2.294,1.503-2.729,2.35-1.725,3.355
	s-0.978,1.679-7.846,2.67c-5.056,0.729-11.052,1.671-13.324,2.092C641.703,159.27,641.286,159.176,643.094,158.285L643.094,158.285z
	"/>
<path d="M623.176,151.761c-0.402-1.053,0.059-3.445,1.024-5.315c1.109-2.146,1.325-3.67,0.582-4.129
	c-2.046-1.265-1.279-2.879,1.728-3.634c1.599-0.401,3.522-1.474,4.278-2.385c1.574-1.896,8.85-2.245,9.942-0.477
	c0.399,0.648-0.101,2.361-1.111,3.806c-1.013,1.445-1.841,4.041-1.841,5.768c0,2.634-0.811,3.421-5.021,4.883
	c-2.761,0.958-5.881,2.115-6.934,2.57C624.591,153.381,623.649,152.995,623.176,151.761z"/>
<path d="M644.865,140.027c0-0.287,0.531-0.85,1.181-1.251c0.65-0.401,1.183-0.167,1.183,0.521s-0.532,1.25-1.183,1.25
	C645.396,140.547,644.865,140.313,644.865,140.027z"/>
<path d="M120.706,134.336c-1.157-1.394-1.083-2.044,0.368-3.249c2.4-1.992,3.591-0.641,2.194,2.49
	C122.304,135.736,121.954,135.84,120.706,134.336L120.706,134.336z"/>
<path d="M118.858,125.454c-0.399-0.646,0.066-1.83,1.033-2.633c1.92-1.594,2.322-0.344,0.708,2.204
	C119.982,125.998,119.299,126.166,118.858,125.454z"/>
<path d="M42.519,124.7c0-0.831,3.582-2.284,8.662-3.515c1.926-0.467,3.065-0.354,2.682,0.265c-0.366,0.591-2.138,1.373-3.938,1.736
	c-1.8,0.363-4.203,1.021-5.339,1.46C43.449,125.086,42.519,125.11,42.519,124.7L42.519,124.7z"/>
<path d="M744.37,111.419c-2.179-0.879-1.793-2.234,0.688-2.421c1.19-0.089,2.165,0.595,2.165,1.521
	C747.225,112.277,746.815,112.406,744.37,111.419L744.37,111.419z"/>
<path d="M484.83,105.383c-7.475-4.076-11.047-10.337-8.881-15.566c1.023-2.474,1.056-4.03,0.115-5.786
	c-1.955-3.654,0.597-7.938,7.121-11.952c3.101-1.907,6.194-4.512,6.877-5.788c1.894-3.535,0.207-9.593-3.084-11.093
	c-1.666-0.759-2.573-1.96-2.205-2.919c0.838-2.185-3.095-9.647-7.011-13.304c-2.883-2.691-4.123-2.959-13.993-3.024
	c-13.439-0.088-15.943-0.835-15.722-4.691c0.093-1.602,0.447-2.913,0.789-2.914c0.342-0.001,5.125-0.555,10.63-1.232
	c7.028-0.865,13.329-2.647,21.163-5.988c12.129-5.172,13.054-5.273,41.993-4.593c9.139,0.215,17.546-0.461,28.346-2.28
	c10.059-1.693,17.458-2.332,21.454-1.851c3.396,0.409,8.312,0.139,11.088-0.608c6.441-1.734,23.177,0.352,29.758,3.71
	c3.893,1.985,5.95,2.247,12.518,1.594c7.093-0.706,7.628-0.613,5.497,0.952c-1.3,0.954-5.286,2.12-8.858,2.59
	c-7.753,1.021-14.876,6.546-12.987,10.075c0.813,1.521,0.229,2.821-2.403,5.343c-1.913,1.833-3.759,4.215-4.102,5.294
	c-0.821,2.591-11.264,7.413-16.44,7.593c-5.75,0.2-6.353,1.422-1.904,3.871c2.102,1.157,5.167,3.129,6.814,4.381l2.995,2.277
	l-2.708,1.002c-2.075,0.768-3.761,0.272-7.213-2.121c-4.688-3.248-9.73-3.264-7.04-0.022c1.05,1.264,0.797,1.755-1.167,2.269
	c-4.39,1.147-1.284,3.417,3.557,2.6c3.08-0.521,4.812-0.246,5.776,0.915c1.146,1.381-0.35,2.021-8.951,3.829
	c-5.681,1.194-13.25,2.214-16.822,2.268c-6.638,0.1-11.42,2.005-18.456,7.353c-2.295,1.744-7.171,3.472-12.876,4.563
	c-11.925,2.282-15.954,4.92-23.14,15.151c-5.771,8.218-9.251,11.281-12.851,11.31C491.532,108.597,488.078,107.154,484.83,105.383
	L484.83,105.383z"/>
<path d="M401.086,97.484c-2.537-1.559-5.645-4.465-6.907-6.459c-2.465-3.893-4.737-4.388-11.391-2.479
	c-2.253,0.646-4.78,0.708-5.792,0.143c-3.497-1.958,2.82-3.882,9.856-3.003c5.351,0.668,6.54,0.478,7.164-1.148
	c1.253-3.267,6.992-5.608,10.182-4.155c1.964,0.895,3.749,0.87,6.258-0.087c3.375-1.288,3.421-1.404,1.217-3.023
	c-1.261-0.926-2.7-1.683-3.198-1.683s-2.296-2.373-3.995-5.273c-1.7-2.9-4.885-6.381-7.078-7.737
	c-3.728-2.304-4.221-2.344-7.556-0.62c-2.915,1.507-4.599,1.613-9.211,0.577c-3.104-0.697-7.438-0.932-9.632-0.521
	c-3.805,0.711-10.775-1.15-10.775-2.878c0-3.173,10.002-10.296,15.944-11.354l4.724-0.841l-3.377,3.598
	c-4.658,4.963-2.906,7.247,2.152,2.806c2.146-1.884,5.854-3.792,8.242-4.24c3.647-0.684,5.209-0.238,9.789,2.795
	c6.093,4.036,6.562,4.144,9.999,2.305c2.069-1.107,2.836-0.803,5.083,2.015c1.554,1.949,5.025,4.072,8.41,5.143
	c5.395,1.707,5.764,2.078,5.764,5.799c0,2.79,0.805,4.55,2.699,5.905c7.926,5.668,7.754,5.434,6.038,8.181
	c-2.353,3.765-4.208,4.038-9.413,1.383c-3.62-1.848-5.202-2.101-7.024-1.125c-2.23,1.193-2.254,1.448-0.459,4.92
	c1.474,2.849,1.608,4.288,0.607,6.486c-1.234,2.708-1.431,2.75-4.781,1.017c-6.586-3.406-11.021-1.165-4.877,2.465
	c1.925,1.137,3.232,2.501,2.904,3.032C411.507,101.277,405.663,100.296,401.086,97.484L401.086,97.484z"/>
<path d="M643.684,99.013c0-0.542,0.799-0.984,1.772-0.984s1.771,0.443,1.771,0.984s-0.798,0.984-1.771,0.984
	C644.481,99.998,643.684,99.555,643.684,99.013z"/>
<path d="M356.555,92.662c-2.329-1.224-4.137-1.329-7.398-0.429c-5.544,1.531-7.482,0.411-4.669-2.698
	c3.602-3.979,6.044-4.762,10.388-3.329c4.889,1.614,7.059,4.012,5.74,6.344C359.774,94.037,359.201,94.053,356.555,92.662z"/>
<path d="M591.126,92.124c-1.948-1.281-4.429-2.049-5.512-1.707c-1.491,0.472-1.822,0.062-1.364-1.688
	c0.702-2.687,11.079-6.565,14.588-5.452c1.223,0.388,4.349,0.069,6.946-0.709c4.078-1.222,5.159-1.129,7.915,0.677l3.192,2.092
	l-2.844,2.216c-2.4,1.871-6.853,3.494-17.606,6.419C595.467,94.236,593.075,93.405,591.126,92.124z"/>
<path d="M270.465,70.076c-1.624-0.257-5.58-1.646-8.791-3.087l-5.838-2.621l8.2-0.59c4.511-0.325,8.201-1.122,8.201-1.771
	c0-0.65-3.188-1.466-7.086-1.814c-5.146-0.46-6.116-0.783-3.543-1.181c4.308-0.667,4.619-2.532,0.59-3.549
	c-2.9-0.733-2.879-0.777,1.201-2.535c7.071-3.047,14.603-3.63,21.276-1.649c5.479,1.627,6.334,1.62,8.917-0.072
	c1.827-1.197,2.911-1.397,3.005-0.555c0.081,0.724,0.214,1.937,0.295,2.695c0.274,2.559,2.63,2.228,5.441-0.765
	c2.603-2.77,7.113-4.097,7.104-2.09c-0.002,0.487-1.053,2.606-2.335,4.708l-2.331,3.822l3.811,1.989l3.812,1.988l-6.258,2.856
	c-5.647,2.578-6.806,2.725-11.867,1.511c-4.908-1.177-6.316-1.042-11.261,1.077C277.422,70.836,276.245,70.989,270.465,70.076
	L270.465,70.076z"/>
<path d="M317.834,69.244c-1.067-1.286-0.626-1.918,2.13-3.06c1.919-0.795,4.671-1.06,6.146-0.592
	c2.558,0.812,2.499,0.939-1.389,3.01C319.761,71.245,319.514,71.268,317.834,69.244z"/>
<path d="M643.684,63.778c2.29-1.48,3.545-1.48,3.545,0c0,0.65-1.196,1.173-2.657,1.163
	C642.421,64.926,642.252,64.704,643.684,63.778z"/>
<path d="M860.41,60.501c-6.037-2.385-5.914-2.254-4.156-4.372c0.822-0.99,1.029-1.817,0.463-1.837
	c-0.564-0.021,0.033-0.841,1.332-1.823c1.299-0.981,2.371-2.161,2.383-2.62c0.041-1.747,4.852-6.354,8.246-7.902
	c1.949-0.888,6.998-1.889,11.221-2.224c4.225-0.335,9.881-0.949,12.568-1.365c2.863-0.442,5.195-0.261,5.627,0.436
	c0.838,1.355-0.76,1.931-9.928,3.578c-9.096,1.634-14.564,4.181-18.164,8.46c-3.795,4.508-3.922,7.355-0.438,9.786l2.658,1.854
	l-3.545-0.053C866.73,62.391,863.009,61.527,860.41,60.501z"/>
<path d="M241.83,57.077c-1.905-1.905-1.471-2.319,7.668-7.322c10.708-5.861,16.088-6.64,25.691-3.715l5.315,1.618l-7.086,1.405
	c-5.795,1.149-18.077,5.256-27.776,9.289C244.652,58.762,242.944,58.191,241.83,57.077z"/>
<path d="M327.157,55.548c0-0.628-1.461-1.982-3.248-3.007l-3.248-1.864l4.349,0.684c3.09,0.486,4.628,0.196,5.315-1
	c0.816-1.423,8.333-4.271,11.331-4.292c0.504-0.004,0.093,1.586-0.914,3.533C338.371,54.186,327.157,59.095,327.157,55.548z"/>
<path d="M345.545,52.1c-1.692-2.738,9.865-6.976,14.774-5.418c3.578,1.136,1.187,3.087-5.054,4.125
	c-2.792,0.464-5.954,1.217-7.025,1.673C347.169,52.936,345.957,52.765,345.545,52.1z"/>
<path d="M383.258,43.402c-7.795-0.62-14.318-1.262-14.496-1.427c-1.056-0.98,1.578-4.17,4.413-5.344
	c2.787-1.154,4.072-1.001,7.888,0.941c3.719,1.893,6.116,2.208,13.025,1.709c4.657-0.335,9.972-0.229,11.811,0.236l3.343,0.846
	l-4.134,2.209c-2.273,1.215-4.931,2.152-5.905,2.083C398.228,44.586,391.053,44.022,383.258,43.402z"/>
<path d="M723.145,38.576c-5.803-2.97-6.361-4.317-1.805-4.343c1.786-0.01,4.045-0.591,5.021-1.292
	c1.53-1.102,1.511-1.191-0.151-0.665c-1.058,0.335-2.542-0.009-3.298-0.765c-1.045-1.045-1.589-1.026-2.271,0.077
	c-0.632,1.022-1.929,1.143-4.38,0.409c-6.229-1.865-7.617-2.693-7.617-4.542c0-1.566,1.562-1.71,11.222-1.031
	c7.355,0.517,11.22,0.374,11.22-0.417c0-2.325,3.277-1.177,4.146,1.453l0.878,2.657l0.521-2.657
	c0.288-1.461,1.283-2.657,2.213-2.657s1.689-0.638,1.689-1.417c0-1.103,0.313-1.103,1.417,0c0.824,0.824,4.775,1.417,9.448,1.417
	c8.443,0,10.428,1.51,4.796,3.65c-2.928,1.113-8.018,0.798-13.596-0.84c-1.137-0.334-2.062-0.173-2.06,0.358
	c0.009,1.09,6.646,5.099,8.44,5.099c0.644,0,1.914,0.746,2.826,1.657c1.422,1.421,1.409,1.751-0.085,2.325
	c-0.958,0.368-1.74,0.094-1.74-0.607c0-0.825-1.503-0.994-4.25-0.478c-2.977,0.558-4.009,0.405-3.441-0.511
	c0.444-0.719,0.166-2.082-0.619-3.028c-1.515-1.825-5.862-2.384-5.862-0.753c0,0.532-1.728,2.876-3.839,5.21l-3.838,4.244
	L723.145,38.576L723.145,38.576z"/>
<path d="M409.832,35.978c-2.048-1.202-4.944-1.55-9.449-1.136c-4.21,0.387-7.448,0.053-9.201-0.949
	c-2.417-1.382-1.826-1.54,5.55-1.48c9.224,0.075,13.275-1.9,8.28-4.036c-2.373-1.015-2.027-1.106,2.041-0.543
	c5.311,0.735,7.375-0.688,4.481-3.089c-3.085-2.561,0.307-3.355,11.285-2.644c6.793,0.44,11.062,0.193,12.807-0.741
	c3.343-1.789,2.031-4.066-1.789-3.107c-2.641,0.663-20.968-0.425-20.194-1.198c0.553-0.553,26.518-2.958,43.566-4.035
	c8.843-0.559,18.675-1.338,21.85-1.732l5.771-0.716l-9.527,4.577c-8.933,4.291-23.459,8.474-29.427,8.474
	c-1.453,0-5.63,1.594-9.281,3.543s-7.372,3.543-8.268,3.543c-0.896,0-4.759,1.587-8.585,3.528c-3.827,1.94-6.958,3.516-6.958,3.501
	C412.785,37.723,411.456,36.931,409.832,35.978L409.832,35.978z"/>
<path d="M386.801,25.187c-5.724-1.267-5.934-1.743-1.728-3.923c6.131-3.178,11.934-3.992,14.571-2.045
	c2.088,1.542,1.967,1.78-2.134,4.2C393.235,25.94,391.5,26.227,386.801,25.187z"/>
</svg>
